<?xml version="1.0" encoding="utf-8"?>
<!-- Generator: Adobe Illustrator 22.0.1, SVG Export Plug-In . SVG Version: 6.00 Build 0)  -->
<svg version="1.1" xmlns="http://www.w3.org/2000/svg" xmlns:xlink="http://www.w3.org/1999/xlink" x="0px" y="0px"
	 viewBox="0 0 1302.7 786.8" style="enable-background:new 0 0 1302.7 786.8;" xml:space="preserve">
<style type="text/css">
	.st0{fill:#045373;}
	.st1{fill:#F06203;}
</style>
<g id="Layer_1">
</g>
<g id="_x3C_Layer_x3E_">
	<g>
		<path class="st0" d="M815.3,284.7c-2,17-7,36-14.2,54.4C783.5,383.6,754,419,717,448.6c-6.3,5.1-8.8,5-15-0.5
			c-13.8-12.2-27.6-24.6-41.3-36.9c-7.8-7-11-7-18.9,0.2C628.9,423,616,434.8,603,446.5c-6.7,6.1-11.6,6.5-18.6,0.8
			c-47.8-38.9-81.7-86.6-94-148c-1.1-5.6-2.1-11.3-2.9-17c-1.2-7.8,1.2-12.3,9.1-14.3c12.9-3.3,25.9-6,39-8.3
			c6.9-1.2,9.5,1.2,11,8.4c6.4,29.5,14.7,58.4,28.2,85.5c4.7,9.4,10.3,18.2,16.8,26.4c6.2,7.9,10.4,8.3,18,1.9
			c11-9.2,22-18.5,33-27.8c7.1-6,10.7-6.1,17.8-0.2c10.6,8.8,21.1,17.6,31.6,26.5c9.3,7.8,13.1,7.4,20.4-2.6
			c18.9-25.8,29.2-55.3,37.4-85.7c2-7.5,3.5-15.2,5.1-22.8c1.6-7.2,4.6-10.3,11.8-9.8c13.1,0.9,26.1,2.9,38.5,7.4
			C813.1,269.9,815.3,273.7,815.3,284.7z"/>
		<path class="st1" d="M674.8,265.7c0,16.6,0,33.3,0,49.9c0,13.8-8.3,21.6-22.7,21.6c-15.3,0-23.9-7.7-24-21.6
			c-0.1-33.3,0-66.5,0-99.8c0-8.6-1.9-10.6-10.5-10.3c-22,1-43.5,5.4-64.9,10.1c-10.1,2.2-10.8,1.7-10.8-8.8c0-5.3-0.1-10.7-0.2-16
			c-0.2-8.4,2.2-11.7,10.7-13.8c11.2-2.7,22.5-4.7,33.9-6.2c41.1-5.4,82.2-5.3,123.4-1.3c13.3,1.3,26.4,3.5,39.4,6.7
			c10.5,2.5,12.3,5.2,12,15.8c-0.1,5.3,0,10.7,0,16c0.1,8.2-1.9,9.9-10,8.2c-10.4-2.2-20.8-4.6-31.2-6.7c-12.1-2.4-24.4-3.2-36.7-4
			c-5.5-0.4-8.4,1.9-8.4,7.8C674.9,230.8,674.9,248.3,674.8,265.7C674.8,265.7,674.8,265.7,674.8,265.7z"/>
		<path class="st0" d="M651.3,87.1c11.9-3.6,24.4,3.6,29.2,17.1c-5.9,0.6-11.6-1.9-18.4-0.6c6.7,5.2,13.5,10.1,15.5,17.4
			c2.9,10.3,8.4,14.3,18.9,14.2c5.7,0,11,3.6,17,7.2c-20.3,9.6-40.3,16-62.2,14.6C651.3,133.7,651.3,110.4,651.3,87.1z"/>
		<path class="st1" d="M651.3,87.1c0,23.3,0,46.6,0,69.9c-11.2,0.4-21.9-2.8-32.6-5.3c-9.1-2-18.2-3-27.5-2.3
			c4.2-7.9,18.7-14.2,26.8-11.6c7.4,2.4,14.8,4.1,24,3.1c-7.2-2.7-13.7-2.9-19.3-5.9c-1.9-1-5.4-1.4-4.1-4.9
			c1.2-3.3,4.1-2.9,6.8-2.2c2.8,0.7,5.5,1.3,8.5,0c-0.9-1.9-2.7-2.1-4-2.6c-6.2-2.3-7.9-4.7-5.5-10.5
			C629.8,102.4,637.8,92,651.3,87.1z"/>
	</g>
	<g>
		<path class="st1" d="M218.2,550.3c0,4.7-0.6,7.2-3.4,10.9l-12.7,17h-12l-8.3-11.3l-8.4,11.3h-12l-12.6-17
			c-2.9-3.8-3.4-6.3-3.4-10.9v-31.7h15.2v31.7c0,1.4,0,2.5,0.7,3.6l6.1,9.1l6.2-9.1c0.7-1.2,0.7-2.2,0.7-3.6v-31.7h15.2v31.9
			c0,1.2,0.1,2.4,0.7,3.4l6.2,9.1l6.2-9.1c0.7-1.1,0.7-2.2,0.7-3.6v-31.7h15.2V550.3z"/>
		<path class="st1" d="M251.5,518.2c11.5,0,21.1,9.4,21.1,21.1v39h-15.6v-13.8h-19.3v13.8h-15.5v-39c0-11.6,9.5-21.1,21.1-21.1
			H251.5z M243.2,533.6c-3.1,0-5.6,2.6-5.6,5.7v9.3h19.3v-9.3c0-3.1-2.4-5.7-5.5-5.7H243.2z"/>
		<path class="st1" d="M304.8,518.4c11.4,0,20.9,9.3,20.9,20.9v3.5c0,6.1-4.4,13.9-10.2,15.6c7.2,3.8,10.2,12.4,10.2,19.9h-15.5
			c0-8.1-6.7-16.1-14.8-16.1h-3.3v16.1h-15.5v-39.2c0-11.2,9.6-20.6,21-20.6H304.8z M297.6,533.7c-3.1,0-5.6,2.5-5.6,5.5l0.1,10.5
			h12.7c3,0,5.5-2.5,5.5-5.5v-5.1c0-3-2.5-5.5-5.5-5.5H297.6z"/>
		<path class="st1" d="M344.8,558.6c0,2.3,2,4,4.3,4h13.6v15.6h-14.5c-10.5,0-19-8.1-19-19.3v-40.8h15.6V558.6z"/>
		<path class="st1" d="M427,548.5c0,16.8-13.6,30.4-30.6,30.4c-16.8,0-30.5-13.6-30.5-30.4c0-17,13.7-30.7,30.5-30.7
			C413.4,517.8,427,531.5,427,548.5z M381.6,548.5c0,8,6.7,14.7,14.8,14.7c8.4,0,15-6.7,15-14.7c0-8.2-6.6-15-15-15
			C388.3,533.5,381.6,540.2,381.6,548.5z"/>
		<path class="st1" d="M477.2,573.9c-4.8,3.1-10.3,4.7-16.2,4.7c-16.8,0-30.3-13.4-30.3-30.1s13.5-30.2,30.3-30.2
			c5.9,0,11.4,1.6,16.2,4.6l-7.7,13.6c-2.5-1.7-5.4-2.7-8.5-2.7c-8.2,0-14.8,6.5-14.8,14.7c0,8.1,6.6,14.7,14.8,14.7
			c3.2,0,6.1-1,8.5-2.8L477.2,573.9z"/>
		<path class="st1" d="M528.7,525c0,4.7-1,8.7-4.3,12.2l-10.3,11.1l10.3,11c3.3,3.5,4.3,7.6,4.3,12.2v6.5h-15.1v-6.3
			c0-1.3-0.3-2.4-1.2-3.3l-10.7-12.4h-5.3v22h-15.6v-59.5h15.6v22.1h4.7l11.3-12.5c0.9-0.9,1.2-2,1.2-3.3v-6.3h15.1V525z"/>
		<path class="st1" d="M590.3,533.6v44.6h-15v-44.6h-14.6v-14.9H605v14.9H590.3z"/>
		<path class="st1" d="M629.6,533.6c-3,0-5.5,2.6-5.5,5.6v2.4h26.5v14.1h-26.5v2c0,3,2.5,5.9,5.5,5.9h21.1v14.7h-21.1
			c-11.3,0-20.7-9.3-20.7-20.6v-18.3c0-11.3,9.3-20.7,20.7-20.7h21.1v14.9H629.6z"/>
		<path class="st1" d="M701.2,573.9c-4.8,3.1-10.3,4.7-16.2,4.7c-16.8,0-30.3-13.4-30.3-30.1s13.5-30.2,30.3-30.2
			c5.9,0,11.4,1.6,16.2,4.6l-7.7,13.6c-2.5-1.7-5.4-2.7-8.5-2.7c-8.2,0-14.8,6.5-14.8,14.7c0,8.1,6.6,14.7,14.8,14.7
			c3.2,0,6.1-1,8.5-2.8L701.2,573.9z"/>
		<path class="st1" d="M740.6,518.6C740.6,518.7,740.7,518.7,740.6,518.6l15.5,0.1v59.5h-15.5v-20.9h-20v20.9H705v-59.6
			c0.1,0.1,0.1,0.1,0.2,0.1h15.4v24h20V518.6z"/>
		<path class="st1" d="M810.1,569.2c0.1,10.4-14.2,13.4-19.2,4.8l-15.8-27.8v32h-15.7v-49.9c0-14.2,14.3-12.7,18.4-5.5L795,553
			l-0.6-34.5h15.7V569.2z"/>
		<path class="st1" d="M875,548.5c0,16.8-13.6,30.4-30.6,30.4c-16.8,0-30.5-13.6-30.5-30.4c0-17,13.7-30.7,30.5-30.7
			C861.4,517.8,875,531.5,875,548.5z M829.6,548.5c0,8,6.7,14.7,14.8,14.7c8.4,0,15-6.7,15-14.7c0-8.2-6.6-15-15-15
			C836.2,533.5,829.6,540.2,829.6,548.5z"/>
		<path class="st1" d="M894.3,558.6c0,2.3,2,4,4.3,4h13.6v15.6h-14.5c-10.5,0-19-8.1-19-19.3v-40.8h15.6V558.6z"/>
		<path class="st1" d="M976.6,548.5c0,16.8-13.6,30.4-30.6,30.4c-16.8,0-30.5-13.6-30.5-30.4c0-17,13.7-30.7,30.5-30.7
			C962.9,517.8,976.6,531.5,976.6,548.5z M931.1,548.5c0,8,6.7,14.7,14.8,14.7c8.4,0,15-6.7,15-14.7c0-8.2-6.6-15-15-15
			C937.8,533.5,931.1,540.2,931.1,548.5z"/>
		<path class="st1" d="M1040.1,549.4c0,17.5-12,29.4-29.5,29.4c-16.7,0-30.2-13.6-30.2-30.3c0-16.8,13.5-30.4,30.3-30.4
			c6,0,11.5,1.8,16.2,4.8l-7.6,13.6c-2.5-1.7-5.6-2.8-8.6-2.8c-8.1,0-14.8,6.6-14.8,14.8c0,8.1,6.6,14.7,14.7,14.8
			c5,0,9.6-2.5,12.3-6.6h-12.4v-15.6h29.6V549.4z"/>
		<path class="st1" d="M1044.9,578.2v-59.6h15.6v59.6H1044.9z"/>
		<path class="st1" d="M1086.6,533.6c-3,0-5.5,2.6-5.5,5.6v2.4h26.5v14.1h-26.5v2c0,3,2.5,5.9,5.5,5.9h21.1v14.7h-21.1
			c-11.3,0-20.7-9.3-20.7-20.6v-18.3c0-11.3,9.3-20.7,20.7-20.7h21.1v14.9H1086.6z"/>
		<path class="st1" d="M1137.6,518.4c9.2,0,18.2,6.2,19.8,15.4l-14.7,2.7c-0.6-1.8-2.4-3.3-4.4-3.4h-8.2c-4.7,0-4.7,7.9,0,7.9h7.6
			c13.3,0,20.3,9.3,20.4,18.7c0.1,9.4-6.8,18.9-20.2,18.9h-6c-9.2,0-18.2-6.2-20-15.4l14.9-2.8c0.6,1.9,2.4,3.3,4.4,3.5h8.2
			c4.7,0,4.6-7.9,0-7.9h-7.6c-27.6,0-26.8-37.5-2.3-37.5H1137.6z"/>
	</g>
	<path class="st0" d="M142.8,621.4c12.5-0.6,25.1-1,37.6-1.6l37.6-1.1c12.5-0.3,25.1-1.4,37.6-0.6c6.3,0.4,12.5,0.8,18.8,1.5
		c6.3,0.7,12.5,1.6,18.8,2.9l0,0.9c-6.3,1.3-12.6,2-18.8,2.6c-6.3,0.6-12.5,0.9-18.8,1.2c-12.5,0.6-25.1-0.7-37.6-1.2l-37.6-1.7
		c-12.5-0.7-25.1-1.3-37.6-2.1L142.8,621.4z"/>
	<path class="st0" d="M1156.7,622.3c-12.5,0.8-25.1,1.4-37.6,2.1l-37.6,1.7c-12.5,0.5-25.1,1.8-37.6,1.2c-6.3-0.3-12.5-0.6-18.8-1.2
		c-6.3-0.6-12.5-1.4-18.8-2.6l0-0.9c6.3-1.4,12.5-2.2,18.8-2.9c6.3-0.7,12.5-1.1,18.8-1.5c12.5-0.8,25.1,0.3,37.6,0.6l37.6,1.1
		c12.5,0.5,25.1,0.9,37.6,1.6L1156.7,622.3z"/>
	<g>
		<path class="st0" d="M306.6,636.5v-31.7h8.3v31.7H306.6z"/>
		<path class="st0" d="M343.7,612.8v23.7h-8v-23.7h-7.8v-7.9h23.6v7.9H343.7z"/>
		<path class="st0" d="M394.1,604.7c4.9,0,9.7,3.3,10.5,8.2l-7.8,1.4c-0.3-1-1.3-1.7-2.3-1.8h-4.4c-2.5,0-2.5,4.2,0,4.2h4
			c7.1,0,10.8,5,10.8,9.9c0.1,5-3.6,10-10.7,10H391c-4.9,0-9.7-3.3-10.6-8.2l7.9-1.5c0.3,1,1.3,1.7,2.3,1.8h4.4c2.5,0,2.4-4.2,0-4.2
			h-4c-14.7,0-14.3-19.9-1.2-19.9H394.1z"/>
		<path class="st0" d="M450,620.7c0,8.9-7.2,16.2-16.3,16.2c-8.9,0-16.2-7.2-16.2-16.2c0-9,7.3-16.3,16.2-16.3
			C442.8,604.4,450,611.7,450,620.7z M425.9,620.7c0,4.3,3.5,7.8,7.9,7.8c4.5,0,8-3.5,8-7.8c0-4.4-3.5-8-8-8
			C429.4,612.7,425.9,616.3,425.9,620.7z"/>
		<path class="st0" d="M474.2,612.8c-1.6,0-2.9,1.3-2.9,2.9v3.4h9.3v8.2h-9.3v9.1h-8.2v-20.7c0-6.1,5-11.1,11.1-11.1h8.2v8.1H474.2z
			"/>
		<path class="st0" d="M510.1,612.8v23.7h-8v-23.7h-7.8v-7.9h23.6v7.9H510.1z"/>
		<path class="st0" d="M569.6,621.6c0,2.5-0.3,3.8-1.8,5.8l-6.8,9h-6.4l-4.4-6l-4.5,6h-6.4l-6.7-9c-1.5-2-1.8-3.3-1.8-5.8v-16.9h8.1
			v16.9c0,0.7,0,1.3,0.4,1.9l3.2,4.9l3.3-4.9c0.4-0.6,0.4-1.2,0.4-1.9v-16.9h8.1v17c0,0.6,0.1,1.3,0.4,1.8l3.3,4.9l3.3-4.9
			c0.4-0.6,0.4-1.2,0.4-1.9v-16.9h8.1V621.6z"/>
		<path class="st0" d="M598.4,604.6c6.1,0,11.2,5,11.2,11.2v20.7h-8.3v-7.3H591v7.3h-8.2v-20.7c0-6.2,5.1-11.2,11.2-11.2H598.4z
			 M594,612.8c-1.6,0-3,1.4-3,3v5h10.2v-5c0-1.6-1.3-3-2.9-3H594z"/>
		<path class="st0" d="M637.8,604.7c6.1,0,11.1,5,11.1,11.1v1.8c0,3.2-2.3,7.4-5.4,8.3c3.8,2,5.4,6.6,5.4,10.6h-8.2
			c0-4.3-3.5-8.6-7.9-8.6H631v8.6h-8.2v-20.9c0-6,5.1-10.9,11.1-10.9H637.8z M634,612.8c-1.6,0-3,1.3-3,2.9l0.1,5.6h6.8
			c1.6,0,2.9-1.3,2.9-2.9v-2.7c0-1.6-1.3-2.9-2.9-2.9H634z"/>
		<path class="st0" d="M673,612.8c-1.6,0-2.9,1.4-2.9,3v1.3h14.1v7.5h-14.1v1.1c0,1.6,1.3,3.1,2.9,3.1h11.2v7.8H673
			c-6,0-11-5-11-10.9v-9.7c0-6,5-11,11-11h11.2v7.9H673z"/>
		<path class="st0" d="M727.1,604.7c4.9,0,9.7,3.3,10.5,8.2l-7.8,1.4c-0.3-1-1.3-1.7-2.3-1.8h-4.4c-2.5,0-2.5,4.2,0,4.2h4
			c7.1,0,10.8,5,10.8,9.9c0.1,5-3.6,10-10.7,10H724c-4.9,0-9.7-3.3-10.6-8.2l7.9-1.5c0.3,1,1.3,1.7,2.3,1.8h4.4c2.5,0,2.4-4.2,0-4.2
			h-4c-14.7,0-14.3-19.9-1.2-19.9H727.1z"/>
		<path class="st0" d="M761.8,612.8c-1.6,0-2.9,1.4-2.9,3v1.3H773v7.5h-14.1v1.1c0,1.6,1.3,3.1,2.9,3.1H773v7.8h-11.2
			c-6,0-11-5-11-10.9v-9.7c0-6,5-11,11-11H773v7.9H761.8z"/>
		<path class="st0" d="M801.2,604.7c6.1,0,11.1,5,11.1,11.1v1.8c0,3.2-2.3,7.4-5.4,8.3c3.8,2,5.4,6.6,5.4,10.6h-8.2
			c0-4.3-3.5-8.6-7.9-8.6h-1.7v8.6h-8.2v-20.9c0-6,5.1-10.9,11.1-10.9H801.2z M797.4,612.8c-1.6,0-3,1.3-3,2.9l0.1,5.6h6.8
			c1.6,0,2.9-1.3,2.9-2.9v-2.7c0-1.6-1.3-2.9-2.9-2.9H797.4z"/>
		<path class="st0" d="M851.4,621.7c0,2.5-0.5,4.7-2.2,6.4l-7.8,8.3H835l-7.8-8.3c-1.6-1.7-2.2-4-2.2-6.4v-16.9h8v16.7
			c0,0.7,0.1,1.3,0.6,1.8l4.5,5l4.6-5c0.5-0.5,0.6-1.1,0.6-1.8v-16.7h8V621.7z"/>
		<path class="st0" d="M865.4,636.5v-31.7h8.3v31.7H865.4z"/>
		<path class="st0" d="M912.2,634.2c-2.5,1.6-5.5,2.5-8.6,2.5c-8.9,0-16.1-7.1-16.1-16s7.2-16.1,16.1-16.1c3.1,0,6.1,0.8,8.6,2.4
			l-4.1,7.2c-1.3-0.9-2.9-1.4-4.5-1.4c-4.4,0-7.9,3.4-7.9,7.8c0,4.3,3.5,7.8,7.9,7.8c1.7,0,3.2-0.5,4.5-1.5L912.2,634.2z"/>
		<path class="st0" d="M936.3,612.8c-1.6,0-2.9,1.4-2.9,3v1.3h14.1v7.5h-14.1v1.1c0,1.6,1.3,3.1,2.9,3.1h11.2v7.8h-11.2
			c-6,0-11-5-11-10.9v-9.7c0-6,5-11,11-11h11.2v7.9H936.3z"/>
		<path class="st0" d="M974.5,604.7c4.9,0,9.7,3.3,10.5,8.2l-7.8,1.4c-0.3-1-1.3-1.7-2.3-1.8h-4.4c-2.5,0-2.5,4.2,0,4.2h4
			c7.1,0,10.8,5,10.8,9.9c0.1,5-3.6,10-10.7,10h-3.2c-4.9,0-9.7-3.3-10.6-8.2l7.9-1.5c0.3,1,1.3,1.7,2.3,1.8h4.4
			c2.5,0,2.4-4.2,0-4.2h-4c-14.7,0-14.3-19.9-1.2-19.9H974.5z"/>
	</g>
</g>
</svg>
