<svg xmlns="http://www.w3.org/2000/svg" width="38.194" height="38.22" viewBox="0 0 38.194 38.22">
  <g id="Call" transform="translate(293.724 -1544.457)">
    <path id="Path_27" data-name="Path 27" d="M-93.982,1544.457c.862.224,1.733.417,2.584.677a19.952,19.952,0,0,1,7.413,4.164,20.583,20.583,0,0,1,5.333,7.275,21.213,21.213,0,0,1,1.392,4.584,2.22,2.22,0,0,0,.076.247v.224c-.009.008-.023.015-.027.025-.231.64-.606.953-1.106.921-.608-.039-.966-.388-1.1-1.115a18.049,18.049,0,0,0-3.114-7.348,17.967,17.967,0,0,0-8.083-6.377,34.479,34.479,0,0,0-3.6-1.061c-.69-.188-1.048-.472-1.109-.987-.063-.537.179-.9.819-1.228Z" transform="translate(-178.344)" fill="#fff"/>
    <path id="Path_28" data-name="Path 28" d="M-281.812,1579.769c1.4,3.271,6.246,8.426,10.336,10.295a2.986,2.986,0,0,1,.335-.47c.859-.847,1.7-1.719,2.6-2.513a3.379,3.379,0,0,1,4.566.058q2.659,2.535,5.184,5.209a3.42,3.42,0,0,1,.126,4.583,43.33,43.33,0,0,1-3.61,3.714,5.9,5.9,0,0,1-4.7,1.353,22.239,22.239,0,0,1-8.861-3.12,36.78,36.78,0,0,1-9.155-7.173,36.089,36.089,0,0,1-7.619-11.842,15.524,15.524,0,0,1-1.114-5.073,6.114,6.114,0,0,1,1.672-4.673c1.01-1.03,1.984-2.1,3.071-3.048a3.5,3.5,0,0,1,5.128.073c1.713,1.607,3.359,3.292,4.959,5.012a3.4,3.4,0,0,1,.012,4.63c-.847.958-1.782,1.839-2.679,2.754C-281.635,1579.616-281.721,1579.687-281.812,1579.769Zm-9.743-5.1c.041.433.076.866.124,1.3a5.126,5.126,0,0,0,.1.549,24.107,24.107,0,0,0,3.1,7.349,36.568,36.568,0,0,0,15.191,14.027,17.627,17.627,0,0,0,6.221,1.949,4.166,4.166,0,0,0,3.6-1.234c.808-.844,1.634-1.672,2.451-2.508.1-.107.2-.219.3-.335a1.47,1.47,0,0,0-.043-2.117c-.675-.73-1.391-1.422-2.093-2.127-.869-.872-1.734-1.75-2.617-2.608a1.424,1.424,0,0,0-2.1-.055c-.133.113-.255.237-.378.36-.854.852-1.7,1.71-2.563,2.556a1.633,1.633,0,0,1-2.047.339c-.521-.263-1.043-.527-1.544-.826a26.778,26.778,0,0,1-5.977-4.963,21.527,21.527,0,0,1-3.95-5.619,1.824,1.824,0,0,1,.482-2.528c.893-.866,1.788-1.731,2.644-2.631a1.415,1.415,0,0,0,.006-2.155c-.081-.094-.167-.185-.255-.273q-2.108-2.114-4.218-4.225a1.611,1.611,0,0,0-2.642,0c-.8.8-1.586,1.617-2.406,2.4A4.235,4.235,0,0,0-291.555,1574.667Z" transform="translate(0 -19.356)" fill="#fff"/>
    <path id="Path_29" data-name="Path 29" d="M-97.115,1613.146a17.871,17.871,0,0,1,1.812.477,12.431,12.431,0,0,1,8.2,8.907c.068.252.117.508.167.764a1.1,1.1,0,0,1-.8,1.326,1.083,1.083,0,0,1-1.3-.774c-.181-.606-.276-1.242-.5-1.828a10.261,10.261,0,0,0-7.894-6.7,1.094,1.094,0,0,1-.956-1.343A1.179,1.179,0,0,1-97.115,1613.146Z" transform="translate(-175.566 -61.749)" fill="#fff"/>
  </g>
</svg>
