<svg xmlns="http://www.w3.org/2000/svg" width="23.041" height="23.041" viewBox="0 0 23.041 23.041">
  <g id="Check" transform="translate(-269.513 -620.867)">
    <path id="Path_17" data-name="Path 17" d="M292.554,631.714v1.35a1.528,1.528,0,0,0-.038.194A10.853,10.853,0,0,1,291.2,637.8a11.356,11.356,0,0,1-8.161,5.931c-.439.084-.888.122-1.332.182h-1.35a1.243,1.243,0,0,0-.174-.037,10.677,10.677,0,0,1-4.541-1.308,11.3,11.3,0,0,1-6.111-9.694,10.563,10.563,0,0,1,1.336-5.886,11.288,11.288,0,0,1,9.681-6.095,10.69,10.69,0,0,1,5.888,1.333,11.337,11.337,0,0,1,5.934,8.163C292.457,630.822,292.495,631.27,292.554,631.714Zm-11.515,10.394a9.719,9.719,0,1,0-9.723-9.726A9.723,9.723,0,0,0,281.039,642.107Z" transform="translate(0)" fill="#1876e6"/>
    <path id="Path_18" data-name="Path 18" d="M410.129,795.3a1.433,1.433,0,0,1,.156-.243q2.549-2.555,5.1-5.107a1,1,0,0,1,.724-.355.862.862,0,0,1,.8.484.844.844,0,0,1-.068.933,1.833,1.833,0,0,1-.209.235q-2.9,2.9-5.8,5.8a.93.93,0,0,1-1.5,0q-1.352-1.351-2.7-2.7a.9.9,0,0,1-.047-1.337.881.881,0,0,1,1.238-.005c.32.294.619.61.927.917Z" transform="translate(-130.63 -161.126)" fill="#1876e6"/>
  </g>
</svg>
