<svg xmlns="http://www.w3.org/2000/svg" width="101" height="101" viewBox="0 0 101 101"><g transform="translate(-429 -2944)"><circle cx="50.5" cy="50.5" r="50.5" transform="translate(429 2944)" fill="#64da9f"/><g transform="translate(143.783 2579.768)"><path d="M358.582,440.746a1.18,1.18,0,0,1-1.155.581q-23.322-.015-46.644-.008c-.881,0-1.145-.26-1.145-1.134q0-9.487-.008-18.973a1.168,1.168,0,0,1,.627-1.128c2.573-1.527,5.134-3.074,7.7-4.611.867-.519,1.456-.184,1.46.833.006,1.306,0,2.613,0,3.919v.627c.239-.185.384-.3.527-.409q3.042-2.431,6.081-4.865c.324-.26.649-.482,1.082-.271a.973.973,0,0,1,.483,1.011c0,1.465,0,2.93,0,4.505.182-.133.3-.214.414-.3q3.079-2.46,6.156-4.925c.32-.257.64-.5,1.078-.3s.5.605.5,1.043c-.009,1.465,0,2.93,0,4.5.189-.141.321-.234.446-.335l6.009-4.8a4.791,4.791,0,0,1,.417-.319.782.782,0,0,1,1.26.605c.044.6.02,1.21.022,1.815,0,1.017,0,2.034,0,3.092h1.682c.059-.77.125-1.543.177-2.316q.594-8.7,1.184-17.4.094-1.382.191-2.765c.064-.914.312-1.151,1.213-1.152q2.127,0,4.253,0c.784,0,1.061.279,1.114,1.046q.461,6.72.931,13.44.3,4.408.6,8.818c.006.095.019.189.037.366.74,0,1.482.017,2.223-.006a1.036,1.036,0,0,1,1.084.6Zm-1.649-18.179H343.47c-.954,0-1.212-.262-1.213-1.227,0-1.036,0-2.071,0-3.107,0-.132-.021-.263-.037-.45-.191.146-.33.248-.464.355q-3.041,2.432-6.079,4.868c-.325.261-.655.476-1.082.278-.451-.209-.488-.618-.486-1.053.008-1.354,0-2.708,0-4.062,0-.116-.023-.231-.039-.393-.161.123-.275.208-.385.3q-3.1,2.476-6.192,4.956a.947.947,0,0,1-1.088.241c-.41-.2-.447-.579-.446-.977,0-1.338,0-2.676,0-4.015v-.547c-.273.215-.448.35-.62.488q-2.985,2.389-5.967,4.779c-.324.26-.653.486-1.082.295-.452-.2-.5-.614-.5-1.046q0-2.1,0-4.206c0-.163-.013-.325-.023-.547-2.095,1.255-4.109,2.471-6.135,3.668a.679.679,0,0,0-.37.682q.014,8.674.008,17.349c0,.154.014.308.022.465h24.449V429.494c0-1,.234-1.228,1.249-1.228q2.82,0,5.64,0c1.059,0,1.267.2,1.267,1.25q0,4.8,0,9.606v.542h13.039Zm-8.194-23.654c-.508,7.35-1.012,14.654-1.519,21.987h6.408c-.508-7.349-1.013-14.662-1.519-21.987ZM337.4,429.931v9.737h4.814v-9.737Z" transform="translate(0 -5.729)" fill="#fff"/><path d="M379.864,386.646a3.085,3.085,0,0,1,1.791,1.325.94.94,0,0,0,.49.316.837.837,0,0,1,.676.947.814.814,0,0,1-.959.652,1.979,1.979,0,0,1-1.449-.819c-.113-.155-.218-.315-.34-.462-.336-.4-.546-.414-.945-.062a8.773,8.773,0,0,1-1.013.867,2.011,2.011,0,0,1-2.842-.258,6.755,6.755,0,0,1-.588-.56.537.537,0,0,0-.914.01,5.813,5.813,0,0,1-.583.564,2.121,2.121,0,0,1-3.154.006c-.447-.365-.967-.642-1.412-1.008a1.278,1.278,0,0,1-.423-.683c-.081-.421.241-.654.578-.835h.382c1.037.206,1.648,1.076,2.462,1.64.823-.575,1.4-1.433,2.414-1.64h.382a4.482,4.482,0,0,1,1.895,1.209c.52.535.6.527,1.148-.013a4.685,4.685,0,0,1,1.737-1.2Z" transform="translate(-31.606)" fill="#fff"/><path d="M334.451,471.414c0-.717-.005-1.434,0-2.151.008-.8.27-1.074,1.055-1.081.94-.008,1.88-.01,2.82,0,.725.008,1.02.3,1.025,1.016q.015,2.246,0,4.493c-.006.711-.319,1.011-1.033,1.018q-1.41.013-2.82,0c-.742-.006-1.035-.3-1.046-1.05S334.451,472.163,334.451,471.414Zm1.672-1.572v3.211h1.567v-3.211Z" transform="translate(-13.396 -44.007)" fill="#fff"/><path d="M325.156,471.473c0,.749.009,1.5,0,2.246-.011.686-.31.982-1,.989q-1.433.015-2.868,0c-.708-.007-1.018-.317-1.022-1.03q-.012-2.246,0-4.493c0-.691.3-.994.99-1q1.458-.021,2.916,0c.7.009.977.29.986,1C325.163,469.943,325.156,470.708,325.156,471.473Zm-1.662,1.578v-3.2h-1.572v3.2Z" transform="translate(-5.735 -44.006)" fill="#fff"/><path d="M348.653,471.44c0-.749-.006-1.5,0-2.246.006-.714.272-1,.97-1.01.988-.014,1.976-.016,2.963,0,.661.011.95.317.954.986q.012,2.27,0,4.54c0,.68-.316.989-1,1-.972.011-1.944.012-2.915,0a.853.853,0,0,1-.968-.972C348.646,472.969,348.653,472.2,348.653,471.44Zm3.234,1.611v-3.2h-1.565v3.2Z" transform="translate(-21.062 -44.006)" fill="#fff"/></g></g></svg>