<svg xmlns="http://www.w3.org/2000/svg" width="101" height="101" viewBox="0 0 101 101"><g transform="translate(-429 -2944)"><circle cx="50.5" cy="50.5" r="50.5" transform="translate(429 2944)" fill="#bd71e8"/><g transform="translate(-49.362 1832.3)"><path d="M555.538,1179.782a2.527,2.527,0,0,1-2.37,1.925c-.273.7-.417.8-1.117.8-.372,0-.744,0-1.115,0-.633-.005-.813-.143-1.015-.789H509.241c-.092.669-.55.835-1.161.794-.336-.023-.675,0-1.013,0-.649,0-.822-.133-1.026-.772-.234-.048-.484-.081-.723-.151a2.342,2.342,0,0,1-1.68-2.181c-.02-2.23-.026-4.46,0-6.69a2.336,2.336,0,0,1,2.471-2.284c2.737-.012,5.474,0,8.212,0h.638V1168.7H514.4q-3.244,0-6.488,0a2.421,2.421,0,0,1-2.661-2.678q0-11.1,0-22.2a2.42,2.42,0,0,1,2.681-2.655h28.69a2.428,2.428,0,0,1,2.668,2.675c0,.978,0,1.956,0,3.008.735,0,1.438,0,2.141,0,1.323,0,1.922.6,1.923,1.916q0,6.183,0,12.368a1.644,1.644,0,0,1-1.855,1.88c-.708.006-1.417,0-2.185,0-.009.192-.022.354-.022.515,0,.879.007,1.757,0,2.636a2.4,2.4,0,0,1-2.555,2.535c-2.18.01-4.359,0-6.539,0h-.633v1.69h12.272c0-.716,0-1.434,0-2.153,0-.838.212-1.055,1.041-1.056q4.587,0,9.175,0c.819,0,1.049.237,1.051,1.056,0,.676,0,1.352.007,2.027a.55.55,0,0,0,.031.118,8.518,8.518,0,0,1,.86.2,2.7,2.7,0,0,1,1.538,1.7Zm-33.2-37.1H507.991c-.947,0-1.218.264-1.218,1.192q0,11.05,0,22.1c0,.934.268,1.2,1.211,1.2q14.293,0,28.587,0c.925,0,1.2-.281,1.2-1.22q0-11.025,0-22.049c0-.962-.268-1.224-1.243-1.224Zm17.035,29.3c-.17-.012-.317-.032-.464-.032q-16.319,0-32.638,0c-.844,0-1.119.282-1.12,1.127q0,2.965,0,5.929c0,.894.281,1.172,1.187,1.172H539.37Zm1.572,4.909h13.075c0-1.252,0-2.466,0-3.68,0-1.021-.235-1.262-1.238-1.263H540.943Zm-1.611-28.5v13.042h2.462v-13.042Zm1.611,31.785h10.894c.355,0,.71,0,1.064,0,.824-.005,1.114-.3,1.117-1.142,0-.18,0-.361,0-.556H540.942Zm-12.935-11.45H516.562v1.644a.424.424,0,0,0,.088.035c3.679.007,7.358.016,11.037,0,.107,0,.3-.2.306-.319C528.03,1169.661,528.007,1169.221,528.007,1168.73Zm23.546,0h-8.172v1.664h8.172Z" transform="translate(0 0)" fill="#fff"/><path d="M539.888,1173.282c-1.791,0-3.582,0-5.373,0a2.436,2.436,0,0,1-2.724-2.718q0-2.56,0-5.12a2.423,2.423,0,0,1,2.616-2.629q5.474-.006,10.949,0a2.391,2.391,0,0,1,2.589,2.546q.024,2.686,0,5.373a2.366,2.366,0,0,1-2.531,2.543C543.571,1173.3,541.73,1173.281,539.888,1173.282Zm0-1.521c1.808,0,3.615,0,5.423,0,.823,0,1.114-.284,1.117-1.086q.011-2.636,0-5.271c0-.766-.316-1.066-1.091-1.067q-5.448-.006-10.9,0c-.823,0-1.123.309-1.124,1.143q0,2.534,0,5.068c0,.939.267,1.212,1.2,1.214Q537.2,1171.766,539.884,1171.761Z" transform="translate(-17.605 -13.531)" fill="#fff"/><path d="M550.752,1168.509v-17.182c-.3,0-.562.012-.826,0a.753.753,0,0,1-.013-1.507c.54-.024,1.082-.022,1.621,0a.748.748,0,0,1,.76.735,4.206,4.206,0,0,1,.01.506q0,8.867,0,17.735c0,1.06-.177,1.237-1.238,1.237H530.849c-.818,0-1.2-.241-1.2-.758s.375-.763,1.193-.763h19.914Z" transform="translate(-16.265 -5.399)" fill="#fff"/><path d="M518.176,1151.343v17.183c.282,0,.548-.014.813,0a.739.739,0,0,1,.781.754.719.719,0,0,1-.735.745,16.066,16.066,0,0,1-1.671,0,.735.735,0,0,1-.73-.759c-.01-.118,0-.236,0-.354q0-8.97,0-17.94c0-.943.21-1.15,1.167-1.15h20.322c.118,0,.237-.005.354,0a.766.766,0,0,1,.8.744.754.754,0,0,1-.816.771c-.151.007-.3,0-.456,0H518.176Z" transform="translate(-8.129 -5.412)" fill="#fff"/><path d="M527.747,1227.867h14.142a4.384,4.384,0,0,1,.557.015.742.742,0,0,1,.122,1.444,2.158,2.158,0,0,1-.6.059q-14.269,0-28.537,0a2.1,2.1,0,0,1-.551-.049.689.689,0,0,1-.549-.752.7.7,0,0,1,.666-.7,4.669,4.669,0,0,1,.557-.013Z" transform="translate(-5.444 -54.187)" fill="#fff"/><path d="M545.254,1179.512c-1.318,0-2.636.012-3.954-.006-.675-.009-1.072-.644-.7-1.13a1.042,1.042,0,0,1,.72-.365c2.653-.026,5.306-.021,7.958-.011a.737.737,0,0,1,.821.766c-.006.456-.3.738-.839.743C547.924,1179.521,546.589,1179.513,545.254,1179.512Z" transform="translate(-23.021 -23.018)" fill="#fff"/></g></g></svg>