<svg xmlns="http://www.w3.org/2000/svg" width="101" height="101" viewBox="0 0 101 101"><g transform="translate(-429 -2944)"><circle cx="50.5" cy="50.5" r="50.5" transform="translate(429 2944)" fill="#64d0da"/><g transform="translate(6.451 1371.162)"><path d="M471.17,1610.766h.67c2.532,0,5.065-.012,7.6.006a3.127,3.127,0,0,1,1.722,5.771,2.827,2.827,0,0,1,.832,2.494,2.9,2.9,0,0,1-1.428,2.228,3.111,3.111,0,0,1,.848,2.556,2.893,2.893,0,0,1-1.375,2.221,9.521,9.521,0,0,0,.609,1.084.754.754,0,0,0,.536.174c3,.01,6,.006,9,.006q2.733,0,5.468,0c.766,0,1,.22,1,.97q0,8.928,0,17.857c0,.726-.2.927-.923.927q-12.995,0-25.988,0c-.723,0-.921-.2-.922-.92,0-3.017.005-6.034-.013-9.05a1.409,1.409,0,0,0-.265-.781q-1.838-2.462-3.725-4.886a.94.94,0,0,0-.525-.356,12.8,12.8,0,0,1-6.268-2.458c-.02-.016-.057-.01-.14-.021,0,.224,0,.443,0,.662-.008.67-.235.907-.9.909-1.532.006-3.065,0-4.6,0-.984,0-1.968,0-2.952,0-.643,0-.877-.23-.878-.878q-.006-8.493,0-16.986c0-.644.237-.877.88-.878q3.726-.009,7.452,0c.7,0,.909.228.913.939,0,.225,0,.451,0,.691.063-.005.123.009.149-.015,2.264-2.064,4.563-4.092,6.774-6.212a17.738,17.738,0,0,0,3.348-5.056,9.041,9.041,0,0,1,1.092-1.813,2.864,2.864,0,0,1,4.886.594,5.391,5.391,0,0,1,.123,4.367,26.956,26.956,0,0,1-2.723,5.378C471.37,1610.41,471.3,1610.534,471.17,1610.766Zm-7.862,18.565c-.329-.451-.415-.857-.11-1.23.322-.394.732-.2,1.118-.089q1.992.588,3.985,1.174c.176.052.358.088.587.144,0-.425,0-.779,0-1.132,0-.858.167-1.027,1.008-1.027h9.174a1.724,1.724,0,0,0-1.365-.741c-.488-.047-.738-.307-.735-.725,0-.44.282-.7.788-.73.306-.015.615.007.918-.023a1.615,1.615,0,0,0,.4-3.142,2.74,2.74,0,0,0-.615-.114.676.676,0,0,1-.675-.732c-.008-.433.256-.689.736-.723.257-.019.517,0,.772-.031a1.611,1.611,0,0,0,.381-3.128,3.281,3.281,0,0,0-.613-.122c-.478-.077-.715-.332-.7-.763s.283-.665.77-.694c.274-.016.551,0,.82-.043a1.611,1.611,0,0,0,.229-3.142,2.743,2.743,0,0,0-.764-.085q-3.339-.008-6.677,0c-.968,0-1.936.014-2.9-.008-.726-.016-.992-.542-.613-1.16.084-.137.184-.265.273-.4a32.818,32.818,0,0,0,3.064-5.53,4.841,4.841,0,0,0,.4-3.29,1.708,1.708,0,0,0-1.289-1.418,1.565,1.565,0,0,0-1.659.846,17.367,17.367,0,0,0-1,1.87,20.021,20.021,0,0,1-4.593,6.108c-2.067,1.851-4.119,3.717-6.189,5.564a.94.94,0,0,0-.356.782c.013,3.129.08,6.261-.027,9.387a2.775,2.775,0,0,0,1.357,2.647c.241.161.477.33.728.476A10.813,10.813,0,0,0,463.308,1629.331Zm7.039,16.238h24.811v-16.76H470.349c0,.3,0,.551,0,.808s.01.517,0,.774a.761.761,0,0,1-1.02.758c-.406-.1-.8-.233-1.207-.35l-2.256-.655a.92.92,0,0,0,.216.46c1.3,1.7,2.619,3.4,3.9,5.122a1.923,1.923,0,0,1,.358,1.054c.03,2.694.016,5.389.016,8.083C470.348,1645.085,470.347,1645.308,470.347,1645.569Zm-13.962-16.89V1612.9h-6.34v15.779Z" fill="#fff"/><path d="M475.6,1637.081a7.341,7.341,0,0,1,7.408-7.289,7.5,7.5,0,0,1,7.384,7.468,7.374,7.374,0,0,1-7.53,7.332A7.545,7.545,0,0,1,475.6,1637.081Zm1.532.07a5.9,5.9,0,1,0,5.932-5.906A5.978,5.978,0,0,0,477.128,1637.151Z" fill="#fff"/><path d="M486.48,1633.444c-.132.2-.212.331-.3.455-1.626,2.221-3.262,4.434-4.872,6.667a1.02,1.02,0,0,1-1.061.538,5.776,5.776,0,0,0-.767-.005c.136-.2.223-.348.321-.482,1.627-2.22,3.266-4.431,4.872-6.667a.992.992,0,0,1,1.027-.512A6.231,6.231,0,0,0,486.48,1633.444Z" fill="#fff"/><path d="M482.5,1634.97a1.73,1.73,0,0,1-1.7,1.747,1.616,1.616,0,0,1-1.571-1.732,1.743,1.743,0,0,1,1.675-1.771A1.61,1.61,0,0,1,482.5,1634.97Zm-2.253-.088a.8.8,0,0,0,.631.887.656.656,0,0,0,.613-.719.781.781,0,0,0-.611-.806A.618.618,0,0,0,480.251,1634.882Z" fill="#fff"/><path d="M483.537,1639.454a1.746,1.746,0,0,1,1.689-1.8,1.643,1.643,0,0,1,1.591,1.709,1.759,1.759,0,0,1-1.7,1.79A1.6,1.6,0,0,1,483.537,1639.454Zm2.323.01a.775.775,0,0,0-.613-.853c-.339-.019-.616.323-.626.772a.774.774,0,0,0,.647.827C485.605,1640.211,485.848,1639.905,485.86,1639.464Z" fill="#fff"/></g></g></svg>