<svg xmlns="http://www.w3.org/2000/svg" width="101" height="101" viewBox="0 0 101 101"><g transform="translate(-429 -2944)"><circle cx="50.5" cy="50.5" r="50.5" transform="translate(429 2944)" fill="#ff57a5"/><g transform="translate(303.055 2281.209)"><path d="M176.491,738.657c-.976,0-1.953,0-2.93,0-.78,0-1-.211-1.126-1.035-.262-1.715-.533-3.429-.779-5.145a.678.678,0,0,0-.508-.636c-1.353-.517-2.692-1.074-4.018-1.657a.674.674,0,0,0-.809.077c-1.375,1.06-2.765,2.1-4.154,3.14-.692.519-.967.5-1.57-.093q-2.061-2.036-4.115-4.08c-.6-.6-.623-.879-.118-1.576,1.019-1.4,2.034-2.813,3.072-4.2a.732.732,0,0,0,.065-.87c-.59-1.323-1.142-2.664-1.666-4.015-.133-.344-.263-.519-.655-.56-1.682-.179-3.359-.4-5.039-.6-.878-.1-1.089-.319-1.092-1.2q-.011-2.865-.015-5.729c0-.891.18-1.1,1.058-1.236,1.715-.261,3.429-.53,5.147-.77a.676.676,0,0,0,.62-.521c.545-1.389,1.16-2.751,1.713-4.137a.862.862,0,0,0-.071-.716c-1.058-1.4-2.155-2.777-3.233-4.164-.5-.642-.483-.945.086-1.52q2.036-2.061,4.085-4.11c.642-.644.9-.662,1.618-.12,1.349,1.022,2.7,2.035,4.035,3.081a.871.871,0,0,0,1.084.108c1.251-.589,2.54-1.1,3.834-1.595.392-.149.59-.291.639-.741.189-1.746.429-3.487.653-5.229.1-.747.341-.964,1.112-.966q2.93-.011,5.86-.009c.845,0,1.065.2,1.187,1.037.252,1.738.513,3.475.745,5.216a.722.722,0,0,0,.551.671c1.333.509,2.657,1.047,3.958,1.631a.657.657,0,0,0,.8-.085c1.389-1.076,2.79-2.138,4.189-3.2.712-.54.98-.521,1.617.112q2.056,2.041,4.107,4.087c.577.577.594.853.1,1.517-1.053,1.407-2.1,2.816-3.177,4.207a.711.711,0,0,0-.061.864q.9,1.98,1.686,4.007a.712.712,0,0,0,.671.551c1.723.2,3.442.435,5.162.666.826.111,1.028.349,1.032,1.194q.012,2.9.015,5.794c0,.807-.193,1.028-1,1.153-1.736.269-3.475.519-5.2.821a.973.973,0,0,0-.6.515c-.585,1.326-1.106,2.68-1.7,4a.665.665,0,0,0,.084.806c1.067,1.369,2.115,2.753,3.165,4.135.513.676.492.964-.106,1.57q-2.014,2.037-4.034,4.068c-.657.659-.907.674-1.674.109-1.379-1.017-2.763-2.029-4.13-3.063a.717.717,0,0,0-.86-.068c-1.3.584-2.62,1.136-3.955,1.639a.755.755,0,0,0-.588.718c-.2,1.723-.439,3.442-.666,5.162-.1.744-.35.968-1.112.973-1,.006-2,0-2.995,0ZM161.51,731.8c1.479-1.117,2.942-2.2,4.378-3.319a1.133,1.133,0,0,1,1.474-.1,15.882,15.882,0,0,0,4.911,2.017,1.065,1.065,0,0,1,.919,1.01c.239,1.674.527,3.342.752,5.018.061.458.244.559.664.551,1.28-.024,2.561-.032,3.841,0,.456.01.578-.161.628-.588.194-1.659.437-3.311.647-4.968a1.061,1.061,0,0,1,.909-1.02,15.886,15.886,0,0,0,4.852-1.992,1.25,1.25,0,0,1,1.642.072c1.441,1.107,2.922,2.162,4.234,3.126l3.6-3.49c-1.053-1.381-2.114-2.809-3.218-4.2a1.346,1.346,0,0,1-.13-1.643c.74-1.56,1.39-3.167,1.98-4.79a1.249,1.249,0,0,1,1.108-.984c1.675-.235,3.343-.521,5.017-.762.346-.05.486-.164.48-.526q-.033-2.018-.018-4.037c0-.341-.088-.5-.46-.542-1.68-.2-3.354-.448-5.035-.64a1.123,1.123,0,0,1-1.107-.974,16.5,16.5,0,0,0-1.981-4.79c-.528-.873-.522-.943.112-1.786l3.1-4.119-3.521-3.563c-1.419,1.079-2.911,2.2-4.384,3.343a1.074,1.074,0,0,1-1.366.079,16.525,16.525,0,0,0-4.977-2.028,1.021,1.021,0,0,1-.87-.98c-.228-1.72-.506-3.433-.736-5.153-.05-.371-.156-.525-.555-.518-1.345.024-2.691.022-4.037.009-.346,0-.492.095-.535.463-.2,1.68-.448,3.354-.634,5.035a1.3,1.3,0,0,1-1.047,1.2c-1.586.563-3.149,1.205-4.676,1.915-1,.465-.993.542-1.848-.106l-4.14-3.144-3.55,3.47c1.109,1.42,2.234,2.877,3.38,4.318a1.054,1.054,0,0,1,.1,1.364,16.746,16.746,0,0,0-2.151,5.137.994.994,0,0,1-.937.834c-1.7.24-3.387.524-5.084.755-.42.057-.537.217-.529.62.023,1.28.036,2.562,0,3.841-.013.5.177.608.629.656,1.639.177,3.27.418,4.909.6a1,1,0,0,1,.99.851,16.42,16.42,0,0,0,2.133,5.143,1.028,1.028,0,0,1-.072,1.308c-1,1.339-1.98,2.692-2.965,4.042-.122.168-.229.347-.3.447Z" fill="#fff"/><path d="M209.762,736.644a10.16,10.16,0,1,1-10.1-10.175A10.161,10.161,0,0,1,209.762,736.644ZM199.6,728.139a8.487,8.487,0,1,0,8.495,8.473A8.48,8.48,0,0,0,199.6,728.139Z" transform="translate(-23.262 -23.404)" fill="#fff"/></g></g></svg>