<svg xmlns="http://www.w3.org/2000/svg" width="101" height="101" viewBox="0 0 101 101"><g transform="translate(-429 -2944)"><circle cx="50.5" cy="50.5" r="50.5" transform="translate(429 2944)" fill="#5e60a5"/><g transform="translate(-455.29 2024.883)"><path d="M915.777,941.117h38.8a1.186,1.186,0,0,1,.633,1.22c-.017,2.875-.008,5.75-.008,8.625v.609h.705c1.9,0,1.926.024,1.926,1.95v2.406c.291,0,.511-.007.729,0,.648.025,1,.337,1,.974q.027,2.092,0,4.184a.887.887,0,0,1-.93.944c-.249.019-.5,0-.772,0v29.628h3.416v1.733h-52.24v-1.736h3.446V962.035c-.267,0-.5.013-.738,0a.9.9,0,0,1-.963-.962q-.025-2.091,0-4.183a.889.889,0,0,1,.964-.957c.246-.013.494,0,.768,0,0-1.128,0-2.18,0-3.232,0-.8.315-1.107,1.113-1.123.487-.01.974,0,1.513,0V950.9c0-2.856.009-5.713-.008-8.569A1.165,1.165,0,0,1,915.777,941.117ZM914.3,962.058v29.568h41.753V962.058Zm2.606-10.527h36.519v-8.636H916.906Zm40.9,6.181H912.545v2.54H957.8Zm-1.745-4.357H914.293v2.541h41.765Z" transform="translate(0 0)" fill="#fff"/><path d="M932.919,1017.929c0-1.378,0-2.756,0-4.134,0-.779.3-1.1,1.07-1.1q2.832-.018,5.665,0c.772,0,1.094.319,1.1,1.086q.015,4.134,0,8.268c0,.793-.33,1.106-1.128,1.109q-2.807.009-5.614,0c-.772,0-1.086-.321-1.089-1.088C932.914,1020.685,932.919,1019.307,932.919,1017.929Zm6.051-3.462h-4.278v6.917h4.278Z" transform="translate(-16.033 -48.05)" fill="#fff"/><path d="M932.919,1060.358c0-1.378,0-2.756,0-4.134,0-.774.31-1.079,1.086-1.081q2.833-.007,5.665,0c.745,0,1.076.3,1.079,1.044q.017,4.185,0,8.37c0,.719-.325,1.022-1.041,1.025q-2.883.012-5.767,0c-.713,0-1.016-.317-1.02-1.038C932.913,1063.148,932.919,1061.753,932.919,1060.358Zm6.058-3.443H934.7v6.9h4.281Z" transform="translate(-16.033 -76.557)" fill="#fff"/><path d="M977.993,1017.894c0-1.361,0-2.722,0-4.083,0-.806.3-1.117,1.105-1.121q2.807-.014,5.614,0c.791,0,1.115.329,1.117,1.122q.011,4.108,0,8.217c0,.794-.333,1.12-1.118,1.123q-2.807.01-5.614,0c-.8,0-1.1-.321-1.1-1.124C977.99,1020.65,977.993,1019.272,977.993,1017.894Zm6.051,3.491v-6.925h-4.271v6.925Z" transform="translate(-46.297 -48.051)" fill="#fff"/><path d="M1028.2,1017.917c0,1.378,0,2.756,0,4.134,0,.773-.311,1.1-1.079,1.1q-2.833.013-5.665,0c-.755,0-1.091-.334-1.094-1.1q-.013-4.134,0-8.268c0-.764.329-1.092,1.091-1.1q2.832-.017,5.665,0c.774,0,1.079.325,1.081,1.094C1028.206,1015.161,1028.2,1016.539,1028.2,1017.917Zm-6.075,3.456h4.3v-6.9h-4.3Z" transform="translate(-74.742 -48.05)" fill="#fff"/><path d="M977.993,1060.362c0-1.378,0-2.756,0-4.134,0-.776.308-1.084,1.081-1.086q2.833-.008,5.665,0c.763,0,1.087.315,1.09,1.09q.013,4.134,0,8.268c0,.773-.322,1.079-1.094,1.082q-2.833.009-5.665,0c-.78,0-1.074-.3-1.077-1.086C977.989,1063.118,977.993,1061.74,977.993,1060.362Zm6.073-3.447h-4.3v6.889h4.3Z" transform="translate(-46.297 -76.557)" fill="#fff"/><path d="M1028.2,1060.4c0,1.361,0,2.722,0,4.083,0,.786-.3,1.092-1.069,1.094q-2.858.01-5.716,0c-.712,0-1.047-.312-1.05-1.021q-.02-4.185,0-8.37c0-.735.341-1.046,1.08-1.048q2.833-.008,5.665,0c.778,0,1.087.307,1.091,1.077C1028.205,1057.615,1028.2,1059.01,1028.2,1060.4Zm-6.076,3.4h4.3v-6.887h-4.3Z" transform="translate(-74.741 -76.557)" fill="#fff"/><path d="M967.685,953.074a2.78,2.78,0,0,1,2.85-2.885,2.9,2.9,0,0,1,.022,5.8A2.775,2.775,0,0,1,967.685,953.074Zm4.638.032c0-1.256-.671-2.018-1.785-2.013a2,2,0,0,0,.016,3.983A1.73,1.73,0,0,0,972.323,953.105Z" transform="translate(-39.377 -6.091)" fill="#fff"/><path d="M954.386,953.668h-2.67v2.418h-1.029v-5.58h1v2.369h2.656v-2.381h1.043v5.585h-1Z" transform="translate(-27.964 -6.297)" fill="#fff"/><path d="M1001.053,950.488h3.515v.789H1002.1v1.576h1.923v.811H1002.1v1.586h2.461v.823h-3.5Z" transform="translate(-61.781 -6.292)" fill="#fff"/><path d="M988.117,956.107h-1.058v-4.768h-1.7v-.825h4.406v.8h-1.645Z" transform="translate(-51.242 -6.309)" fill="#fff"/><path d="M1017.985,956.1h-3.225v-5.6h.986v4.748h2.239Z" transform="translate(-70.984 -6.3)" fill="#fff"/></g></g></svg>