<svg xmlns="http://www.w3.org/2000/svg" width="101" height="101" viewBox="0 0 101 101"><g transform="translate(-429 -2944)"><circle cx="50.5" cy="50.5" r="50.5" transform="translate(429 2944)" fill="#e34856"/><g transform="translate(-165.661 2732.3)"><path d="M671.157,265.635c-.234.248-.463.5-.7.743q-4.393,4.4-8.79,8.791a5.342,5.342,0,0,1-5.471,1.495.429.429,0,0,0-.353.046c-.759.831-1.5,1.678-2.273,2.549l1.834,1.63c3.446,3.06,6.9,6.109,10.334,9.183a3.807,3.807,0,1,1-5.43,5.3q-3.262-3.657-6.507-7.33l-3.807-4.291c-.06-.068-.118-.138-.2-.236-.8.9-1.562,1.756-2.326,2.617q-4.127,4.648-8.253,9.3a3.806,3.806,0,1,1-5.389-5.349q4.278-3.823,8.58-7.619a.769.769,0,0,1,1.009-.152.734.734,0,0,1-.012,1.222c-.968.87-1.945,1.73-2.918,2.594q-2.816,2.5-5.631,5a2.345,2.345,0,1,0,3.3,3.3l16.875-19.01c.443-.5.6-.527,1.212-.295a3.8,3.8,0,0,0,4.318-.915q4.607-4.577,9.188-9.182c.555-.555.982-.513,1.419.134Zm-20.388,16.774c.1.115.174.206.253.3l6.637,7.481c1.269,1.431,2.528,2.871,3.812,4.288a2.346,2.346,0,1,0,3.2-3.4q-5.16-4.57-10.312-9.149l-1.764-1.563Z" transform="translate(-5.156 -15.496)" fill="#fff"/><path d="M641.84,257.934l2.786,2.472c.941-.835,1.866-1.65,2.779-2.478a.375.375,0,0,0,.047-.311,5.405,5.405,0,0,1,1.542-5.569q4.519-4.5,9.018-9.013a2.945,2.945,0,0,1,.259-.247.739.739,0,0,1,.98.043.714.714,0,0,1,.047.976,3.309,3.309,0,0,1-.274.288q-4.479,4.48-8.962,8.955a3.945,3.945,0,0,0-1.009,4.645.761.761,0,0,1-.215.935q-3.2,2.842-6.408,5.683a.736.736,0,0,1-1.178-.092c-.824-.92-1.647-1.841-2.456-2.774a.378.378,0,0,0-.531-.113,7.332,7.332,0,0,1-8.356-1.6,16.563,16.563,0,0,1-4.36-7.12,8,8,0,0,1-.239-3.742,5.171,5.171,0,0,1,5.1-4.31,10.964,10.964,0,0,1,5.456,1.377,17.963,17.963,0,0,1,4.724,3.548,7.356,7.356,0,0,1,1.4,8.129Zm1.669,3.462c-.125-.119-.225-.221-.332-.316q-1.236-1.1-2.475-2.193c-.635-.562-.666-.729-.264-1.46a5.814,5.814,0,0,0-.536-6.471,14.971,14.971,0,0,0-4.868-3.791,10.2,10.2,0,0,0-3.908-1.138,3.835,3.835,0,0,0-4.389,3.194,6.544,6.544,0,0,0,.182,2.84,14.764,14.764,0,0,0,3.881,6.486,5.894,5.894,0,0,0,7.442,1.155.766.766,0,0,1,1.124.188c.577.642,1.146,1.291,1.72,1.936.28.315.564.626.862.958Z" fill="#fff"/><path d="M733.955,257.331a3.383,3.383,0,0,1-.38.637q-3.719,3.739-7.455,7.461a.737.737,0,1,1-1.023-1.043q3.712-3.718,7.427-7.432c.257-.258.56-.415.887-.22A2.816,2.816,0,0,1,733.955,257.331Z" transform="translate(-70.125 -9.871)" fill="#fff"/><path d="M726.968,250.692a3.954,3.954,0,0,1-.416.639q-3.677,3.7-7.369,7.377c-.019.019-.037.038-.057.056a.742.742,0,0,1-1.095.056.731.731,0,0,1,.063-1.091c.548-.559,1.106-1.108,1.659-1.662q2.828-2.829,5.657-5.656c.112-.112.222-.277.356-.305a1.271,1.271,0,0,1,.742,0C726.7,250.2,726.8,250.471,726.968,250.692Z" transform="translate(-65.207 -5.228)" fill="#fff"/></g></g></svg>