<svg xmlns="http://www.w3.org/2000/svg" width="101" height="101" viewBox="0 0 101 101"><g transform="translate(-429 -2944)"><circle cx="50.5" cy="50.5" r="50.5" transform="translate(429 2944)" fill="#fe912a"/><g transform="translate(10.736 2432.582)"><path d="M483.8,586.622c-.861-.224-1.741-.392-2.579-.683a8.846,8.846,0,0,1-3.781-2.609,1.091,1.091,0,0,0-.916-.416q-11.151.018-22.3.01a5.7,5.7,0,0,1-5.51-3.429,6.33,6.33,0,0,1-.214-4.07c1.09-6.019,2.142-12.045,3.207-18.068.364-2.056.716-4.114,1.091-6.168a3.311,3.311,0,0,1,3.451-2.894c.943-.008,1.886,0,2.893,0,0-.483-.024-.936,0-1.385a22.672,22.672,0,0,1,.294-3.645,8.772,8.772,0,0,1,7.454-6.753,1.575,1.575,0,0,0,.27-.09h1.859c.72.188,1.46.321,2.158.572a8.894,8.894,0,0,1,5.853,8.051c.034,1.059.005,2.119.005,3.216.176.013.316.032.456.033.815,0,1.63,0,2.445,0a3.3,3.3,0,0,1,3.453,2.892q1.245,6.986,2.468,13.977c.1.562.032,1.268.351,1.645.3.358,1.012.368,1.541.536a9.875,9.875,0,0,1-1.143,19.093c-.318.06-.634.125-.951.188Zm-24.66-36.645c-1.118,0-2.177-.041-3.23.013a1.556,1.556,0,0,0-1.46,1.417q-.746,4.193-1.48,8.388-1.491,8.435-2.99,16.869a3.518,3.518,0,0,0,.351,2.322,4.107,4.107,0,0,0,3.964,2.269q10.567-.018,21.133,0h.553a9.921,9.921,0,0,1,8.492-14.38c-.264-1.49-.517-2.919-.769-4.347q-.984-5.567-1.969-11.134A1.532,1.532,0,0,0,480.306,550c-1.068-.059-2.141-.015-3.262-.015v.51q0,1.838,0,3.676c0,.753-.286,1.158-.819,1.167-.549.009-.845-.407-.846-1.19q0-1.814,0-3.627V550H460.8v.824c0,1.176.005,2.353,0,3.529,0,.592-.324.964-.808.978s-.836-.377-.852-.987c0-.163,0-.327,0-.49Zm33.79,26.769a8.168,8.168,0,1,0-8.066,8.2A8.177,8.177,0,0,0,492.925,576.746ZM460.8,548.256h14.492a36.381,36.381,0,0,0-.023-3.942,7.193,7.193,0,0,0-6.488-6.2,7.368,7.368,0,0,0-7.485,4.628C460.608,544.534,460.854,546.383,460.8,548.256Z" fill="#fff"/><path d="M731.433,824.85a1.6,1.6,0,0,0-1.233-1.5c-.348-.078-.713-.079-1.059-.163a3.194,3.194,0,0,1-.45-6.086.475.475,0,0,0,.345-.542.9.9,0,0,1,.5-.93.788.788,0,0,1,1.136.727c-.005.472.187.649.587.839a3.087,3.087,0,0,1,1.816,2.755.824.824,0,1,1-1.636.179c-.2-1.034-.643-1.528-1.437-1.586a1.534,1.534,0,0,0-1.667,1.372,1.518,1.518,0,0,0,1.4,1.683,3.513,3.513,0,0,1,2.557,1.144,3.2,3.2,0,0,1-1.156,5.033c-.344.141-.484.3-.449.674a.828.828,0,0,1-.608.986.819.819,0,0,1-1.036-.9.745.745,0,0,0-.553-.809,3.07,3.07,0,0,1-1.807-2.5c-.1-.679.18-1.126.707-1.182s.844.249.94.936a1.557,1.557,0,0,0,1.254,1.389,1.488,1.488,0,0,0,1.552-.695A4.784,4.784,0,0,0,731.433,824.85Z" transform="translate(-245.117 -245.76)" fill="#fff"/></g></g></svg>