<svg xmlns="http://www.w3.org/2000/svg" width="113.923" height="113.924" viewBox="0 0 113.923 113.924"><g transform="translate(-67.915 -1825.382)"><g transform="translate(67.915 1825.382)"><path d="M124.877,1939.306a56.962,56.962,0,1,1,56.962-56.962A57.026,57.026,0,0,1,124.877,1939.306Zm0-108.269a51.307,51.307,0,1,0,51.306,51.307A51.365,51.365,0,0,0,124.877,1831.037Z" transform="translate(-67.915 -1825.382)"/></g><g transform="translate(-656.358 1297.845)"><path d="M782.813,556.167c1.136.216,2.294.353,3.4.662a16.2,16.2,0,0,1,9.35,6.841,15.9,15.9,0,0,1,2.735,9.558,16.369,16.369,0,0,1-6.594,12.834c-.161.126-.327.247-.586.443a28.848,28.848,0,0,1,14.018,10.545,28.443,28.443,0,0,1,5.325,16.63H806a24.133,24.133,0,0,0-10.686-20.023,23.317,23.317,0,0,0-14.964-4.186,24.4,24.4,0,0,0-22.965,24.238h-4.468v-1.686a3.762,3.762,0,0,0,.095-.483,26.684,26.684,0,0,1,1.993-8.6,28.64,28.64,0,0,1,16.6-16.184c.194-.076.387-.154.646-.257-.251-.19-.417-.31-.578-.436a16.374,16.374,0,0,1-6.6-12.834,15.909,15.909,0,0,1,2.734-9.558,16.2,16.2,0,0,1,9.351-6.841c1.11-.309,2.268-.446,3.4-.662Zm11.012,16.627a12.136,12.136,0,1,0-12.158,12.142A12.173,12.173,0,0,0,793.825,572.794Z" transform="translate(0)"/></g></g></svg>