<?xml version="1.0" encoding="utf-8"?>
<!-- Generator: Adobe Illustrator 24.0.1, SVG Export Plug-In . SVG Version: 6.00 Build 0)  -->
<svg version="1.1" id="Layer_1" xmlns="http://www.w3.org/2000/svg" xmlns:xlink="http://www.w3.org/1999/xlink" x="0px" y="0px"
	 viewBox="0 0 113.9 113.9" style="enable-background:new 0 0 113.9 113.9;" xml:space="preserve">
<style type="text/css">
	.st0{fill:#64D0DA;}
	.st1{fill:#64DA9F;}
	.st2{fill:#5E60A5;}
	.st3{fill:#FF57A5;}
	.st4{fill:#065381;}
	.st5{fill:#FE912A;}
	.st6{fill:#E34856;}
	.st7{fill:#FFFFFF;}
</style>
<circle class="st6" cx="57" cy="57" r="51.3"/>
<g>
	<path class="st7" d="M47.2,37.3c6.5-4.7,12.9-4.7,19.4,0c0.9-0.8,1.7-1.6,2.7-2.4c1.2-0.9,2.4-1.8,3.6-2.7c2-1.4,4.1-1.4,6.2-0.5
		c2.5,1.1,4.7,2.6,6.7,4.5c2.3,2.2,4.4,4.7,5.5,7.7c0.9,2.3,1.5,4.7,0.6,7.2c-0.9,2.4-2.6,3.9-5.1,4.4c-2.4,0.5-4.5-0.1-6.1-2.1
		c-0.6-0.7-1.1-1.4-1.6-2.2c-1.8-2.7-3.5-5.3-5.3-8c-0.2-0.3-0.4-0.5-0.5-0.8c-0.2-0.6,0-1.2,0.5-1.5c0.6-0.4,1.2-0.3,1.7,0.2
		c0.2,0.2,0.4,0.5,0.5,0.7c2.1,3.1,4.2,6.2,6.2,9.3c2.1,3.2,5.9,1.8,6.9-0.5c0.5-1.1,0.4-2.2,0.2-3.4c-0.5-2.6-1.7-4.7-3.4-6.7
		c-2.3-2.7-5-5-8.3-6.3c-1.2-0.5-2.3-0.4-3.4,0.4c-2,1.5-3.9,3.1-5.8,4.6c1,1.7,2.1,3.1,2.9,4.6c2.1,3.9,3.2,8,3.9,12.3
		c0.6,3.7,0.8,7.4,0.6,11.1c-0.2,3.5-0.8,6.9-2.9,9.8c-1.9,2.7-4.6,4.2-7.7,4.9c-6.2,1.4-12.4,1.5-18.4-0.5
		c-4.1-1.3-6.8-4.2-8.1-8.4c-0.8-2.6-1-5.3-1-8c0-4.5,0.5-9,1.6-13.4c1.1-4.4,2.8-8.5,5.7-12c0.1-0.1,0.1-0.2,0.2-0.3
		c-1.9-1.9-4-3.6-6.3-5.1c-1-0.6-1.9-0.5-2.9-0.1c-3.6,1.4-6.4,3.9-8.8,6.8c-1.7,2.1-2.9,4.5-3.1,7.3c-0.3,2.7,2,4.9,4.7,4.5
		c1.2-0.2,2-1,2.6-1.9c2.1-3,4.1-6.1,6.2-9.1c0.2-0.2,0.3-0.5,0.5-0.7c0.5-0.5,1.1-0.6,1.7-0.2c0.6,0.4,0.7,0.9,0.5,1.5
		c-0.1,0.2-0.2,0.4-0.3,0.6c-2.2,3.2-4.3,6.4-6.5,9.7c-3.1,4.7-9.5,3.4-11.6-1c-0.9-2.1-0.6-4.2-0.1-6.2c1-3.7,3.3-6.6,6-9.1
		c2.2-2.1,4.6-3.8,7.5-4.7c1.8-0.6,3.5-0.5,5,0.6c1.7,1.2,3.4,2.5,5.1,3.8C46.2,36.3,46.7,36.8,47.2,37.3z M73.3,64.3
		c0-3.7-0.4-7.6-1.3-11.5c-1.1-4.5-2.7-8.8-5.9-12.3c-3.7-4.1-9.8-5.3-14.6-2.7c-3.3,1.8-5.5,4.7-7,8c-3.5,7.8-4.4,16-3.3,24.3
		c0.6,4.5,3.1,7.7,7.7,8.9c5.4,1.4,10.8,1.4,16.2,0.1c3.8-0.9,6.4-3.2,7.5-7C73.2,69.8,73.3,67.2,73.3,64.3z"/>
	<path class="st7" d="M57.1,71.9c-1,0.7-2,1.5-3.1,2.1c-1.4,0.8-3,0.9-4.5,0.1c-0.7-0.3-1.3-0.9-1.8-1.5c-0.5-0.6-0.3-1.4,0.3-1.8
		c0.6-0.4,1.3-0.3,1.8,0.2c0.8,0.9,1.7,1,2.7,0.7c1.3-0.5,2.2-1.4,2.8-2.6c-0.7-0.3-1.4-0.6-2-1c-2.4-1.6-2.4-4.5,0-6
		c0.7-0.4,1.5-0.8,2.4-0.9c1.7-0.3,3.4-0.1,4.9,0.9c2.4,1.6,2.4,4.5,0,6.1c-0.6,0.4-1.3,0.6-1.9,0.9c0.4,1.8,2.6,3.2,4.3,2.7
		c0.4-0.1,0.7-0.4,1-0.7c0.6-0.6,1.3-0.7,1.9-0.3c0.6,0.4,0.7,1.2,0.3,1.9c-1,1.6-3.3,2.3-5.5,1.6c-0.7-0.2-1.4-0.6-2.1-1
		C58,72.9,57.5,72.3,57.1,71.9z M57,63.5c-0.8,0.3-1.6,0.6-2.4,1c-0.5,0.3-0.5,0.7-0.1,1.1c1.1,1,3.7,1,4.8,0c0.4-0.4,0.5-0.8,0-1.1
		C58.6,64.2,57.8,63.9,57,63.5z"/>
	<path class="st7" d="M52.8,53.5c0,1.1-0.9,2-2,2.1c-1.1,0-2-0.9-2-2c0-1.1,0.9-2,2-2.1C51.9,51.5,52.8,52.4,52.8,53.5z"/>
	<path class="st7" d="M63.1,55.6c-1.1,0-2-1-2-2.1c0-1.1,1-2,2.1-2c1.1,0,2,1,2,2.1C65.1,54.6,64.1,55.6,63.1,55.6z"/>
</g>
</svg>
