<?xml version="1.0" encoding="utf-8"?>
<!-- Generator: Adobe Illustrator 24.0.1, SVG Export Plug-In . SVG Version: 6.00 Build 0)  -->
<svg version="1.1" id="Layer_1" xmlns="http://www.w3.org/2000/svg" xmlns:xlink="http://www.w3.org/1999/xlink" x="0px" y="0px"
	 viewBox="0 0 113.9 113.9" style="enable-background:new 0 0 113.9 113.9;" xml:space="preserve">
<style type="text/css">
	.st0{fill:#64D0DA;}
	.st1{fill:#64DA9F;}
	.st2{fill:#5E60A5;}
	.st3{fill:#FF57A5;}
	.st4{fill:#065381;}
	.st5{fill:#FE912A;}
	.st6{fill:#E34856;}
	.st7{fill:#FFFFFF;}
</style>
<circle class="st4" cx="57" cy="57" r="51.3"/>
<g>
	<path class="st7" d="M48,86.6c-0.9-0.2-1.7-0.4-2.5-1c-1.4-1.2-2-2.7-2.1-4.5c-0.1-0.6,0-1.2,0-1.8c0-7.9,0-15.8,0-23.8
		c0-3.4,0.9-6.6,2.3-9.6c1.5-3.3,3.1-6.6,4.7-9.8c0-0.1,0.1-0.2,0.1-0.2c-0.6-0.5-1.3-0.9-1.7-1.5c-1.1-1.3-1.3-2.8-0.6-4.3
		c0.6-1.5,1.7-2.3,3.3-2.6c0.3-0.1,0.6-0.1,0.9-0.1c4,0,8.1,0,12.1,0c2.1,0,3.7,1.1,4.3,3c0.6,2.1-0.2,4.2-2.2,5.1
		c-0.1,0.1-0.2,0.1-0.4,0.2c0.1,0.2,0.1,0.4,0.2,0.5c1.5,3.2,3,6.3,4.5,9.5c1.1,2.2,1.9,4.6,2.2,7c0.1,1,0.2,2.1,0.2,3.1
		c0,8,0,16,0,24.1c0,1.7-0.3,3.3-1.3,4.7c-0.8,1.1-1.8,1.7-3.1,1.9c-0.1,0-0.3,0.1-0.4,0.1C61.7,86.6,54.8,86.6,48,86.6z M45.5,55.2
		c8.6,0,17.1,0,25.6,0c0-0.1,0-0.2,0-0.3c0.1-2.2-0.4-4.3-1.3-6.2c-1.9-4.2-3.9-8.3-5.8-12.4c-0.1-0.3-0.4-0.3-0.6-0.3
		c-3.4,0-6.9,0-10.3,0c-0.4,0-0.6,0.1-0.7,0.5c-0.8,1.8-1.7,3.5-2.5,5.3c-1.3,2.7-2.7,5.4-3.6,8.2C45.7,51.7,45.3,53.4,45.5,55.2z
		 M45.5,70.3c0,0.1,0,0.2,0,0.3c0,3.2,0,6.4,0,9.7c0,0.8,0.2,1.5,0.4,2.3c0.3,1.1,1,1.8,2.1,2c0.4,0.1,0.8,0.1,1.3,0.1
		c6,0,12.1,0,18.1,0c0.3,0,0.7,0,1,0c0.8-0.1,1.4-0.4,1.8-1.1c0.5-0.8,0.8-1.6,0.8-2.5c0-3.4,0-6.8,0-10.2c0-0.1,0-0.3,0-0.4
		C62.5,70.3,54,70.3,45.5,70.3z M71,57.5c-8.6,0-17.1,0-25.6,0c0,3.5,0,7.1,0,10.6c8.5,0,17.1,0,25.6,0C71,64.5,71,61,71,57.5z
		 M58.2,33.8c2,0,4,0,6,0c0.3,0,0.6,0,0.9-0.1c1.1-0.3,1.8-1.3,1.6-2.4c-0.1-1.1-1.1-1.9-2.3-1.9c-4.1,0-8.1,0-12.2,0
		c-1.4,0-2.5,0.9-2.5,2.2c0,1.3,1,2.2,2.4,2.2C54.2,33.8,56.2,33.8,58.2,33.8z"/>
	<path class="st7" d="M47.4,59.4c0.1,0,0.2-0.1,0.2-0.1c0.6,0,1.4-0.2,1.8,0.1c0.4,0.3,0.4,1.1,0.6,1.6c0.3,0.9,0.5,1.9,0.8,3
		c0.1-0.3,0.2-0.5,0.2-0.7c0.3-1.2,0.7-2.4,1-3.5c0.1-0.3,0.2-0.4,0.6-0.4c0.5,0,1,0,1.6,0c0.1,2.3,0.2,4.5,0.3,6.8
		c-0.5,0-1,0-1.5,0c-0.1-1.8-0.1-3.5-0.2-5.3c0,0-0.1,0-0.1,0c-0.1,0.5-0.3,1-0.4,1.5c-0.3,1.1-0.7,2.2-1,3.4
		c-0.1,0.6-0.5,0.4-0.9,0.4c-0.4,0-0.5-0.1-0.6-0.5c-0.3-1.4-0.7-2.7-1-4.1c0-0.1-0.1-0.2-0.2-0.4c-0.1,1.7-0.1,3.3-0.2,5
		c-0.5,0-0.9,0-1.4,0C47.1,63.9,47.3,61.7,47.4,59.4z"/>
	<path class="st7" d="M65.4,62.5c0.7-1,1.2-1.8,1.8-2.6c0.2-0.4,0.5-0.5,0.9-0.5c0.4,0,0.8,0,1.3,0c-0.6,0.8-1.2,1.6-1.8,2.3
		c-0.4,0.5-0.4,0.8-0.1,1.3c0.7,1,1.3,2.1,1.9,3.2c-0.6,0-1.1,0-1.5,0c-0.2,0-0.4-0.2-0.5-0.3C67,65,66.5,64.2,66,63.3
		c-0.5,0.3-0.7,0.7-0.6,1.3c0,0.5,0,1,0,1.6c-0.5,0-1,0-1.5,0c0-2.3,0-4.5,0-6.8c0.5,0,1,0,1.5,0C65.4,60.4,65.4,61.3,65.4,62.5z"/>
	<path class="st7" d="M58.7,59.4c0.5,0,1,0,1.5,0c0,1.8,0,3.6,0,5.5c0.9,0,1.8,0,2.7,0c0,0.5,0,0.9,0,1.3c-1.4,0-2.8,0-4.2,0
		C58.7,64,58.7,61.7,58.7,59.4z"/>
	<path class="st7" d="M55.8,59.4c0.5,0,1,0,1.5,0c0,2.3,0,4.5,0,6.8c-0.5,0-0.9,0-1.5,0C55.8,63.9,55.8,61.7,55.8,59.4z"/>
</g>
</svg>
