<?xml version="1.0" encoding="utf-8"?>
<!-- Generator: Adobe Illustrator 24.0.1, SVG Export Plug-In . SVG Version: 6.00 Build 0)  -->
<svg version="1.1" id="Layer_1" xmlns="http://www.w3.org/2000/svg" xmlns:xlink="http://www.w3.org/1999/xlink" x="0px" y="0px"
	 viewBox="0 0 113.9 113.9" style="enable-background:new 0 0 113.9 113.9;" xml:space="preserve">
<style type="text/css">
	.st0{fill:#64D0DA;}
	.st1{fill:#64DA9F;}
	.st2{fill:#5E60A5;}
	.st3{fill:#FF57A5;}
	.st4{fill:#065381;}
	.st5{fill:#FE912A;}
	.st6{fill:#E34856;}
	.st7{fill:#FFFFFF;}
</style>
<circle class="st1" cx="57" cy="57" r="51.3"/>
<g>
	<path class="st7" d="M29.2,61.3c0.3-0.2,0.5-0.5,0.8-0.7c2.9-1.7,5.7-3.4,8.6-5.2c0.4-0.2,0.8-0.5,1.3-0.2c0.4,0.3,0.5,0.7,0.5,1.1
		c0,1.5,0,3,0,4.4c0,0.2,0,0.4,0,0.6c0.2-0.2,0.4-0.3,0.6-0.4c2.3-1.8,4.6-3.7,6.9-5.5c0.4-0.3,0.7-0.6,1.2-0.3
		c0.5,0.2,0.6,0.7,0.6,1.2c0,1.5,0,3,0,4.4c0,0.2,0,0.3,0,0.6c0.2-0.1,0.3-0.2,0.5-0.3c2.3-1.8,4.6-3.7,6.9-5.5
		c0.1-0.1,0.1-0.1,0.2-0.2c0.3-0.2,0.7-0.4,1.1-0.2c0.4,0.2,0.5,0.5,0.5,0.9c0,1.6,0,3.1,0,4.7c0,0.2,0,0.3,0,0.6
		c0.5-0.4,0.9-0.7,1.3-1c2.1-1.6,4.1-3.3,6.2-4.9c0.2-0.2,0.5-0.4,0.8-0.4c0.6-0.1,0.9,0.4,1,1c0,1.6,0,3.1,0,4.7c0,0.2,0,0.4,0,0.6
		c0.6,0,1.2,0,1.9,0c0.1-0.8,0.1-1.7,0.2-2.5c0.3-4.4,0.6-8.9,0.9-13.3c0.2-3.2,0.4-6.5,0.7-9.7c0.1-0.9,0.4-1.2,1.3-1.2
		c1.6,0,3.2,0,4.9,0c0.9,0,1.2,0.3,1.3,1.2c0.3,4.5,0.6,9,0.9,13.6c0.3,3.8,0.5,7.7,0.8,11.5c0,0.1,0,0.3,0,0.5c0.2,0,0.4,0,0.6,0
		c0.7,0,1.5,0,2.2,0c0.6,0,0.9,0.4,1,1c0,0.1,0,0.3,0,0.4c0,6.8,0,13.5,0,20.3c0,1.1-0.3,1.4-1.4,1.4c-17.6,0-35.1,0-52.7,0
		c-0.6,0-1.1-0.1-1.4-0.7C29.2,76.5,29.2,68.9,29.2,61.3z M38.5,57.7c-0.3,0.1-0.4,0.2-0.6,0.3c-2.1,1.3-4.2,2.6-6.4,3.8
		c-0.4,0.2-0.5,0.4-0.5,0.8c0,6.5,0,13,0,19.6c0,0.2,0,0.4,0,0.6c9.3,0,18.5,0,27.7,0c0-0.2,0-0.4,0-0.6c0-3.6,0-7.3,0-10.9
		c0-1.1,0.3-1.3,1.3-1.3c2.2,0,4.3,0,6.5,0c1.1,0,1.4,0.2,1.4,1.4c0,3.6,0,7.3,0,10.9c0,0.2,0,0.4,0,0.6c5,0,9.9,0,14.8,0
		c0-6.5,0-12.9,0-19.4c-0.2,0-0.5,0-0.7,0c-4.9,0-9.8,0-14.7,0c-0.9,0-1.3-0.3-1.3-1.3c0-0.7,0-1.4,0-2.1c0-0.7,0-1.3,0-2.1
		c-0.3,0.2-0.4,0.3-0.6,0.4c-2.3,1.9-4.7,3.7-7,5.6c-0.3,0.3-0.7,0.5-1.1,0.3c-0.5-0.2-0.6-0.6-0.6-1.1c0-1.6,0-3.1,0-4.7
		c0-0.2,0-0.3,0-0.5c-0.2,0.2-0.3,0.3-0.5,0.4c-2.3,1.9-4.7,3.7-7,5.6c-0.4,0.3-0.7,0.5-1.2,0.3c-0.5-0.2-0.5-0.6-0.5-1.1
		c0-1.5,0-3,0-4.5c0-0.2,0-0.3,0-0.6c-0.2,0.2-0.4,0.3-0.5,0.4c-1.7,1.4-3.4,2.7-5.1,4.1c-0.7,0.6-1.4,1.1-2.1,1.6
		c-0.7,0.5-1.4,0.2-1.5-0.6c0-0.2,0-0.4,0-0.6C38.5,61.2,38.5,59.5,38.5,57.7z M79.1,61.6c-0.6-8.3-1.1-16.6-1.7-24.9
		c-1.3,0-2.5,0-3.8,0C73,45,72.4,53.2,71.8,61.6C74.3,61.6,76.6,61.6,79.1,61.6z M60.7,71.8c0,3.7,0,7.4,0,11c1.8,0,3.6,0,5.5,0
		c0-3.7,0-7.4,0-11C64.3,71.8,62.5,71.8,60.7,71.8z"/>
	<path class="st7" d="M73,29.2c0.9,0.3,1.5,0.7,2,1.5c0.1,0.2,0.3,0.3,0.6,0.4c0.6,0.2,0.9,0.6,0.8,1.1c-0.1,0.5-0.5,0.8-1.1,0.7
		c-0.7-0.1-1.2-0.4-1.6-0.9c-0.1-0.2-0.2-0.4-0.4-0.5c-0.4-0.5-0.6-0.5-1.1-0.1c-0.4,0.3-0.7,0.7-1.1,1c-1.2,0.8-2,0.7-3.2-0.3
		c-0.2-0.2-0.5-0.4-0.7-0.6c-0.4-0.4-0.7-0.4-1,0c-0.2,0.2-0.4,0.4-0.7,0.6c-1.3,1.1-2.3,1.1-3.6,0c-0.5-0.4-1.1-0.7-1.6-1.1
		c-0.2-0.2-0.4-0.5-0.5-0.8c-0.1-0.5,0.3-0.7,0.7-0.9c0.1,0,0.3,0,0.4,0c1.2,0.2,1.9,1.2,2.8,1.9c0.9-0.7,1.6-1.6,2.7-1.9
		c0.1,0,0.3,0,0.4,0c0.8,0.3,1.5,0.7,2.1,1.4c0.6,0.6,0.7,0.6,1.3,0c0.6-0.6,1.2-1.1,2-1.4C72.5,29.2,72.7,29.2,73,29.2z"/>
	<path class="st7" d="M47.7,75.5c0,0.8,0,1.7,0,2.5c0,0.8-0.4,1.2-1.2,1.2c-1.1,0-2.1,0-3.2,0c-0.8,0-1.2-0.3-1.2-1.2
		c0-1.7,0-3.4,0-5.1c0-0.8,0.3-1.1,1.2-1.1c1.1,0,2.2,0,3.2,0c0.8,0,1.1,0.3,1.1,1.2C47.7,73.8,47.7,74.6,47.7,75.5z M45.8,77.3
		c0-1.2,0-2.4,0-3.6c-0.6,0-1.2,0-1.8,0c0,1.2,0,2.4,0,3.6C44.7,77.3,45.2,77.3,45.8,77.3z"/>
	<path class="st7" d="M40.3,75.5c0,0.8,0,1.7,0,2.5c0,0.8-0.4,1.1-1.1,1.1c-1.1,0-2.2,0-3.2,0c-0.8,0-1.2-0.4-1.2-1.2
		c0-1.7,0-3.4,0-5.1c0-0.8,0.3-1.1,1.1-1.1c1.1,0,2.2,0,3.3,0c0.8,0,1.1,0.3,1.1,1.1C40.3,73.7,40.3,74.6,40.3,75.5z M38.4,77.3
		c0-1.2,0-2.4,0-3.6c-0.6,0-1.2,0-1.8,0c0,1.2,0,2.4,0,3.6C37.3,77.3,37.8,77.3,38.4,77.3z"/>
	<path class="st7" d="M49.6,75.4c0-0.9,0-1.7,0-2.6c0-0.7,0.3-1.1,1.1-1.1c1.1,0,2.3,0,3.4,0c0.7,0,1.1,0.4,1.1,1.1
		c0,1.7,0,3.5,0,5.2c0,0.7-0.4,1.1-1.1,1.1c-1.1,0-2.2,0-3.4,0c-0.7,0-1.1-0.4-1.1-1.1C49.6,77.2,49.6,76.3,49.6,75.4z M53.2,73.6
		c-0.6,0-1.2,0-1.8,0c0,1.2,0,2.4,0,3.6c0.6,0,1.2,0,1.8,0C53.2,76.1,53.2,74.9,53.2,73.6z"/>
</g>
</svg>
