<?xml version="1.0" encoding="utf-8"?>
<!-- Generator: Adobe Illustrator 24.0.1, SVG Export Plug-In . SVG Version: 6.00 Build 0)  -->
<svg version="1.1" id="Layer_1" xmlns="http://www.w3.org/2000/svg" xmlns:xlink="http://www.w3.org/1999/xlink" x="0px" y="0px"
	 viewBox="0 0 113.9 113.9" style="enable-background:new 0 0 113.9 113.9;" xml:space="preserve">
<style type="text/css">
	.st0{fill:#64D0DA;}
	.st1{fill:#64DA9F;}
	.st2{fill:#5E60A5;}
	.st3{fill:#FF57A5;}
	.st4{fill:#065381;}
	.st5{fill:#FE912A;}
	.st6{fill:#E34856;}
	.st7{fill:#FFFFFF;}
</style>
<circle class="st3" cx="57" cy="57" r="51.3"/>
<g>
	<path class="st7" d="M69.2,87.5c-1.1-0.2-2.1-0.4-3.2-0.7c-2.6-0.8-4.8-2.3-6.7-4.3c-0.2-0.2-0.6-0.3-0.9-0.3c-6.9,0-13.7,0-20.6,0
		c-4.3,0-7.8-2.7-8.9-6.8c-0.4-1.7-0.2-3.3-0.1-5c0.2-4.5,0.5-8.9,0.8-13.4c0.3-5.5,0.6-11,1-16.5c2.8,0,5.6,0,8.5,0
		c0-1.2,0-2.3,0-3.4c0-2.6,0.9-4.9,2.5-6.8c2.7-3.2,7.2-4.4,11.2-3.1c3.9,1.3,6.8,4.9,7.1,9c0.1,1.4,0,2.9,0,4.4c2.9,0,5.7,0,8.5,0
		c0.3,5.9,0.7,11.8,1,17.8c0.7,0,1.4,0,2.1,0c7.1,0.5,12.9,6.2,13.5,13.3c0.6,7.8-4.7,14.7-12.5,15.9c-0.3,0-0.6,0.1-0.9,0.1
		C70.9,87.5,70.1,87.5,69.2,87.5z M42.7,48.4c-1.2,0-2.4,0-3.6,0c0-1.5,0-2.9,0-4.4c-1.7,0-3.4,0-5.1,0c0,0.6-0.1,1.1-0.1,1.6
		C33.6,50.8,33.3,56,33,61.3c-0.2,3.6-0.4,7.3-0.7,10.9c-0.3,3.7,2.1,6.3,5.8,6.3c6,0,12.1,0,18.1,0c0.2,0,0.4,0,0.7,0
		c-0.1-0.3-0.2-0.5-0.2-0.6c-0.6-1.5-0.8-3-0.9-4.6c-0.2-6.4,3.7-12,9.7-14.2c0.4-0.2,0.5-0.3,0.5-0.8c-0.2-3.8-0.4-7.6-0.7-11.4
		c-0.1-0.9-0.1-1.9-0.2-2.9c-1.7,0-3.4,0-5.1,0c0,1.5,0,2.9,0,4.4c-1.2,0-2.4,0-3.6,0c0-1.5,0-2.9,0-4.4c-4.6,0-9.2,0-13.8,0
		C42.7,45.5,42.7,46.9,42.7,48.4z M70.5,83.9c6.1,0,11.1-5,11.1-11.1c0-6.1-5-11.2-11.1-11.1c-6.1,0-11.1,5-11.1,11.1
		C59.4,78.9,64.4,83.9,70.5,83.9z M42.5,40.3c4.8,0,9.3,0,13.9,0c0-1.2,0-2.4,0-3.5c-0.1-3.5-2.6-6.2-6.1-6.7
		c-3.1-0.4-6.5,1.6-7.3,4.8C42.6,36.6,42.7,38.5,42.5,40.3z"/>
	<path class="st7" d="M68.5,79.3c-2-2.2-3.9-4.4-5.8-6.6c0.9-0.8,1.7-1.6,2.7-2.4c1.1,1.2,2.1,2.4,3.2,3.7c2.2-2.3,4.5-4.6,6.8-7
		c0.8,0.9,1.6,1.7,2.4,2.7C74.8,72.8,71.7,76.1,68.5,79.3z"/>
</g>
</svg>
