<svg xmlns="http://www.w3.org/2000/svg" width="101" height="101" viewBox="0 0 101 101"><g transform="translate(-429 -2944)"><circle cx="50.5" cy="50.5" r="50.5" transform="translate(429 2944)" fill="#065381"/><g transform="translate(-498.57 1895.743)"><path d="M954.336,1093.932c-.009.122-.021.2-.021.278,0,2.42,0,4.84,0,7.26a.507.507,0,0,0,.271.489,1.857,1.857,0,0,1,.416,2.728.517.517,0,0,0-.138.486q.8,3.972,1.566,7.95a1.27,1.27,0,0,1-1.354,1.665q-1.576.008-3.151,0a1.242,1.242,0,0,1-1.3-1.56c.462-2.4.941-4.787,1.413-7.181.024-.123.039-.248.071-.369a1.31,1.31,0,0,0-.19-1.225,1.8,1.8,0,0,1,.6-2.509.459.459,0,0,0,.248-.463q-.01-3.867,0-7.735a.386.386,0,0,0-.33-.446c-1.338-.418-2.667-.86-4-1.3a.776.776,0,0,1-.54-.753.8.8,0,0,1,.57-.734q3.444-1.126,6.888-2.249,3.833-1.25,7.669-2.495,4.5-1.465,9-2.93c1.7-.555,3.4-1.108,5.1-1.677a1.713,1.713,0,0,1,1.133-.015q5.031,1.657,10.067,3.3c1.527.5,3.058.982,4.584,1.48q3.655,1.192,7.307,2.392,3.3,1.077,6.594,2.148c.453.147.693.4.706.774s-.213.644-.669.793q-4.3,1.405-8.6,2.807c-.6.194-1.187.4-1.786.587a.316.316,0,0,0-.258.364c.008,1.325,0,2.649,0,3.974q0,5.258,0,10.514a1.606,1.606,0,0,1-1.131,1.69c-1.643.578-3.284,1.177-4.96,1.643-1.786.5-3.6.915-5.422,1.247a40.63,40.63,0,0,1-9.686.554,36.564,36.564,0,0,1-8.5-1.483c-1.317-.4-2.606-.893-3.9-1.361-.492-.178-.969-.4-1.451-.6a1.721,1.721,0,0,1-1.1-1.729q0-6.355,0-12.71c0-.434-.032-.87,0-1.3.03-.357-.113-.492-.434-.592-1.37-.427-2.732-.879-4.1-1.322Zm7.263,2.371v.476q0,6.611-.008,13.222c0,.357.066.581.444.671a4.058,4.058,0,0,1,.627.266,36.4,36.4,0,0,0,5.927,1.961,38.332,38.332,0,0,0,6.555.982,36.238,36.238,0,0,0,8.023-.358c1.888-.306,3.777-.656,5.625-1.141s3.643-1.166,5.466-1.745a.462.462,0,0,0,.383-.527q-.015-6.868-.008-13.736c0-.1-.011-.2-.018-.317-.127.031-.226.049-.322.08q-2.372.771-4.744,1.545-5.685,1.859-11.368,3.724a1.628,1.628,0,0,1-1.068-.038c-1.73-.575-3.463-1.138-5.2-1.7q-4.174-1.364-8.349-2.725C962.932,1096.732,962.294,1096.528,961.6,1096.3Zm-10.271-5.083,0,.078c.114.044.226.091.341.129.66.216,1.322.428,1.982.644q3.783,1.238,7.566,2.478,4.141,1.351,8.284,2.7c2.4.784,4.813,1.552,7.2,2.373a2.53,2.53,0,0,0,2-.006,6.923,6.923,0,0,1,.775-.263q6.432-2.1,12.865-4.2,5.245-1.711,10.493-3.416c.425-.139.847-.289,1.343-.458-.164-.066-.244-.1-.327-.13q-2.581-.846-5.164-1.69-3.768-1.228-7.536-2.453-2.858-.932-5.715-1.868c-2.469-.806-4.938-1.616-7.411-2.408a1.136,1.136,0,0,0-.653,0c-2.45.787-4.9,1.591-7.342,2.39l-7.465,2.436-8.22,2.683Q952.835,1090.725,951.327,1091.22Zm2.238,15.42-.063-.012-1.3,6.6h2.666Z" transform="translate(0)" fill="#fff"/></g></g></svg>