<?xml version="1.0" encoding="utf-8"?>
<!-- Generator: Adobe Illustrator 24.0.1, SVG Export Plug-In . SVG Version: 6.00 Build 0)  -->
<svg version="1.1" id="Layer_1" xmlns="http://www.w3.org/2000/svg" xmlns:xlink="http://www.w3.org/1999/xlink" x="0px" y="0px"
	 viewBox="0 0 113.9 113.9" style="enable-background:new 0 0 113.9 113.9;" xml:space="preserve">
<style type="text/css">
	.st0{fill:#64D0DA;}
	.st1{fill:#64DA9F;}
	.st2{fill:#5E60A5;}
	.st3{fill:#FF57A5;}
	.st4{fill:#065381;}
	.st5{fill:#FE912A;}
	.st6{fill:#E34856;}
	.st7{fill:#FFFFFF;}
</style>
<circle class="st5" cx="57" cy="57" r="51.3"/>
<g>
	<path class="st7" d="M49.9,48.3c-0.5-0.1-1-0.2-1.4-0.4c-1.6-0.6-2.5-2.3-2.3-3.8c0.3-1.7,1.7-3.1,3.4-3.1c4.9,0,9.8,0,14.6,0
		c1.8,0,3.2,1.4,3.4,3.3c0.2,1.6-1,3.3-2.7,3.8c-0.3,0.1-0.6,0.1-1,0.2c0,1.8,0.1,3.6,0,5.4c-0.1,2,0.4,3.8,1.4,5.6
		c3.8,7,7.5,14,11.2,21c1.3,2.5,0.9,5.1-1.2,6.7c-1,0.8-2.2,1.1-3.5,1.1c-10,0-20,0-30,0c-0.4,0-0.7,0-1.1-0.1
		c-3.6-0.7-5.4-4.3-3.6-7.6c1.9-3.6,3.8-7.1,5.7-10.6c2.2-4.2,4.5-8.4,6.7-12.6c0.2-0.4,0.3-0.8,0.3-1.2
		C49.9,53.4,49.9,50.9,49.9,48.3z M63.1,59.2c-4.3,1.5-8.7,2.3-13.2,2.5c-0.2,0-0.5,0.3-0.7,0.5c-3.4,6.3-6.8,12.6-10.1,18.9
		C37.8,83.7,39.2,86,42,86c10,0,19.9,0,29.9,0c2.9,0,4.3-2.3,2.9-4.8c-2.1-3.9-4.2-7.8-6.3-11.7C66.7,66,64.9,62.6,63.1,59.2z
		 M62,48.2c-0.6,0-1,0-1.5,0c-1,0-2,0-3,0c-0.7,0-1.1-0.5-1.1-1.1c0.1-0.6,0.4-1,1.1-1c0.2,0,0.4,0,0.7,0c1.9,0,3.9,0,5.8,0
		c0.9,0,1.7-0.7,1.7-1.6c0-0.9-0.7-1.5-1.6-1.5c-4.7,0-9.4,0-14,0c-1,0-1.7,0.7-1.7,1.6c0,0.9,0.7,1.5,1.7,1.5c0.8,0,1.7,0,2.5,0
		c0.6,0,1,0.4,1,1c0,0.6-0.3,0.9-0.9,1c-0.2,0-0.4,0-0.7,0.1c0,2.7,0,5.4,0,8.1c0,0.5-0.2,1-0.3,1.4c-0.2,0.6-0.6,1.1-0.9,1.8
		c4-0.2,7.7-1,11.3-2.2C62,54.3,62,51.3,62,48.2z"/>
	<path class="st7" d="M61.2,35.6c-2.7-0.1-4.8-2.3-4.8-4.9c0-2.7,2.3-4.8,5-4.8c2.6,0,4.8,2.3,4.7,4.9
		C66.1,33.5,63.9,35.6,61.2,35.6z M61.2,33.5c1.5,0,2.8-1.2,2.8-2.7c0-1.5-1.2-2.8-2.7-2.8c-1.5,0-2.8,1.2-2.8,2.7
		C58.5,32.2,59.7,33.4,61.2,33.5z"/>
	<path class="st7" d="M54.5,36.6c0,1.7-1.3,3-3,3c-1.7,0-3-1.4-3-3c0-1.7,1.4-3,3.1-3C53.2,33.5,54.5,34.9,54.5,36.6z M51.5,35.6
		c-0.5,0-1,0.4-0.9,0.9c0,0.6,0.4,0.9,0.9,0.9c0.6,0,0.9-0.4,0.9-0.9C52.4,35.9,52,35.6,51.5,35.6z"/>
	<path class="st7" d="M48.7,76c1.7,0,3,1.4,3,3.1c0,1.7-1.4,3.1-3.1,3c-1.7,0-3-1.4-3-3.2C45.6,77.3,47,76,48.7,76z M48.6,80.4
		c0.7,0,1.3-0.6,1.3-1.3c0-0.7-0.6-1.3-1.3-1.3c-0.7,0-1.3,0.6-1.3,1.3C47.3,79.8,47.9,80.4,48.6,80.4z"/>
	<path class="st7" d="M58,66.6c0-1.5,1.1-2.6,2.6-2.7c1.4,0,2.7,1.2,2.7,2.6c0,1.5-1.2,2.7-2.7,2.7C59.2,69.2,58,68,58,66.6z
		 M59.8,66.6c0.1,0.5,0.4,0.9,0.9,0.8c0.5,0,0.8-0.4,0.8-0.9c0-0.5-0.3-0.8-0.8-0.8C60.1,65.7,59.8,66,59.8,66.6z"/>
	<path class="st7" d="M65.6,79.1c1.3,0,2.4,1.1,2.4,2.4c0,1.4-1.1,2.4-2.4,2.4c-1.4,0-2.4-1.1-2.4-2.5
		C63.2,80.1,64.2,79.1,65.6,79.1z M66.5,81.5c-0.4-0.3-0.7-0.6-0.9-0.6C65.3,81,65,81.3,65,81.5c0,0.1,0.4,0.5,0.6,0.5
		C65.8,82.1,66,81.8,66.5,81.5z"/>
	<path class="st7" d="M53.4,70c0,0.7-0.6,1.2-1.2,1.2c-0.7,0-1.2-0.6-1.1-1.3c0-0.7,0.5-1.1,1.2-1.1C52.9,68.8,53.4,69.3,53.4,70z"
		/>
	<path class="st7" d="M60.6,76.4c0,0.6-0.5,1.1-1.1,1.1c-0.6,0-1.1-0.5-1.1-1.1c0-0.6,0.5-1.1,1.1-1.1
		C60.1,75.3,60.6,75.8,60.6,76.4z"/>
	<path class="st7" d="M59.4,53.7c0,1.4-1.1,2.4-2.5,2.4c-1.3,0-2.4-1.1-2.4-2.4c0-1.4,1.1-2.4,2.5-2.4
		C58.3,51.3,59.4,52.3,59.4,53.7z M56.8,54.4c0.1,0,0.2,0,0.3,0c0.2-0.3,0.5-0.5,0.4-0.8c0-0.2-0.4-0.6-0.6-0.6
		c-0.2,0-0.6,0.3-0.6,0.6C56.4,53.9,56.7,54.1,56.8,54.4z"/>
</g>
</svg>
