<?xml version="1.0" encoding="utf-8"?>
<!-- Generator: Adobe Illustrator 24.0.1, SVG Export Plug-In . SVG Version: 6.00 Build 0)  -->
<svg version="1.1" id="Layer_1" xmlns="http://www.w3.org/2000/svg" xmlns:xlink="http://www.w3.org/1999/xlink" x="0px" y="0px"
	 viewBox="0 0 113.9 113.9" style="enable-background:new 0 0 113.9 113.9;" xml:space="preserve">
<style type="text/css">
	.st0{fill:#64D0DA;}
	.st1{fill:#64DA9F;}
	.st2{fill:#5E60A5;}
	.st3{fill:#FF57A5;}
	.st4{fill:#065381;}
	.st5{fill:#FE912A;}
	.st6{fill:#E34856;}
	.st7{fill:#FFFFFF;}
</style>
<circle class="st2" cx="57" cy="57" r="51.3"/>
<g>
	<path class="st7" d="M55.3,87.7c-1.1-0.2-2.3-0.3-3.3-0.6c-9-2.3-14.9-8-17.1-17.1c-3-12.2,4.7-24.4,16.9-27.3
		c0.7-0.2,1.4-0.3,2.2-0.4c-0.6-0.6-1.2-1.2-1.7-1.8c-2.1-2.2-4.2-4.3-6.4-6.5c-0.6-0.6-0.6-1-0.1-1.7c1.4-1.8,2.9-3.6,4.3-5.4
		c0.3-0.4,0.7-0.6,1.3-0.6c3.7,0,7.4,0,11.1,0c0.6,0,0.9,0.2,1.3,0.6c1.4,1.8,2.9,3.6,4.3,5.4c0.6,0.7,0.5,1-0.1,1.7
		c-2.5,2.6-5.1,5.2-7.6,7.9c-0.1,0.1-0.3,0.3-0.4,0.4c1.2,0.3,2.4,0.5,3.6,0.9c9.1,2.8,15.4,10.7,16.1,20.2c0.8,11.6-7.3,22-18.8,24
		c-0.7,0.1-1.5,0.2-2.2,0.3C57.5,87.7,56.4,87.7,55.3,87.7z M57,43.8c-11.6,0-21.1,9.5-21.1,21.1C35.9,76.5,45.4,86,57,86
		c11.7,0,21.1-9.5,21.1-21.1C78.1,53.3,68.5,43.8,57,43.8z M48.3,34c2.4,2.5,4.8,4.9,7.1,7.3c-0.7-2.4-1.5-4.7-2.3-7
		c0-0.1-0.3-0.2-0.4-0.2C51.2,34,49.8,34,48.3,34z M58.5,41.2C58.5,41.2,58.6,41.2,58.5,41.2c2.4-2.3,4.7-4.7,7.2-7.2
		c-1.5,0-2.9,0-4.2,0c-0.4,0-0.6,0.1-0.7,0.5c-0.7,2.1-1.4,4.2-2.2,6.3C58.6,40.9,58.6,41,58.5,41.2z M53.1,28
		c1.4,1.3,2.7,2.6,3.9,3.7c1.2-1.2,2.5-2.4,3.9-3.7C58.2,28,55.7,28,53.1,28z M56.9,40.2c0,0,0.1,0,0.1,0c0.7-2.1,1.4-4.1,2.1-6.2
		c-1.5,0-2.9,0-4.4,0C55.5,36.1,56.2,38.2,56.9,40.2z M48.1,32.2c2.3,0,4.6,0,6.9,0c-1.3-1.3-2.6-2.5-3.9-3.7
		C50.1,29.7,49.1,30.9,48.1,32.2z M63,28.6c-1.3,1.2-2.6,2.4-3.8,3.7c2.2,0,4.5,0,6.8,0C64.8,30.9,63.9,29.7,63,28.6z"/>
	<path class="st7" d="M56.6,45.8C67,45.6,75.8,54,76,64.4c0.3,10.5-8.1,19.3-18.4,19.5C47,84.2,38.2,76,37.9,65.4
		C37.7,54.9,46,46.1,56.6,45.8z M56.5,47.5c-9.8,0.4-17.3,8.4-16.9,18c0.3,9.6,8.4,17.1,18.2,16.7c9.4-0.3,16.9-8.6,16.5-18
		C74,54.7,65.9,47.2,56.5,47.5z"/>
</g>
</svg>
