<svg xmlns="http://www.w3.org/2000/svg" width="51" height="38.242" viewBox="0 0 51 38.242">
  <g id="Message" transform="translate(-406.741 -1924.708)">
    <path id="Path_25" data-name="Path 25" d="M432.24,1924.71q8.5,0,17,0a8.154,8.154,0,0,1,6.9,3.367,7.446,7.446,0,0,1,1.567,4.417c.042,3.249.023,6.5.024,9.748,0,4.137.015,8.275,0,12.412a8.058,8.058,0,0,1-5.54,7.821,9.046,9.046,0,0,1-2.891.453q-17.059.045-34.118.015a8.213,8.213,0,0,1-8.434-8.344q-.006-10.768,0-21.536a8.141,8.141,0,0,1,6.3-8.109,10.947,10.947,0,0,1,2.361-.232C421.018,1924.7,426.629,1924.71,432.24,1924.71Zm0,35.854q8.473,0,16.945,0a5.8,5.8,0,0,0,6.167-6.182q.006-10.541,0-21.082a5.8,5.8,0,0,0-6.2-6.208q-16.916,0-33.833,0a5.8,5.8,0,0,0-6.2,6.211q0,10.541,0,21.082a9.342,9.342,0,0,0,.047,1.075,5.781,5.781,0,0,0,5.9,5.1C420.795,1960.574,426.519,1960.564,432.242,1960.564Z" fill="#fff"/>
    <path id="Path_26" data-name="Path 26" d="M484.191,1994.479a9.212,9.212,0,0,1-.731.945c-1.287,1.278-2.591,2.539-3.891,3.8-.907.883-1.438.878-2.36-.021l-4.179-4.077c-.147-.144-.3-.282-.494-.464-.185.162-.356.3-.515.452q-5.078,4.819-10.153,9.64c-.247.234-.485.478-.747.695a1.226,1.226,0,0,1-1.821-.066,1.172,1.172,0,0,1,.184-1.75q3.2-3.048,6.419-6.082,2.243-2.123,4.488-4.247c.108-.1.2-.218.5-.537a2.579,2.579,0,0,1-.618-.331q-5.345-5.2-10.673-10.409a6.716,6.716,0,0,1-.511-.53,1.092,1.092,0,0,1,.048-1.492,1.15,1.15,0,0,1,1.576-.231,4.729,4.729,0,0,1,.556.481q8.285,8.067,16.568,16.136c.172.168.351.329.56.525.2-.185.368-.331.527-.486l16.567-16.136a6.083,6.083,0,0,1,.46-.42,1.158,1.158,0,0,1,1.71.135,1.087,1.087,0,0,1-.062,1.616c-.794.809-1.61,1.6-2.421,2.388q-4.28,4.177-8.565,8.348a4.906,4.906,0,0,1-.544.4l-.027.246a4.594,4.594,0,0,1,.6.415q5.358,5.059,10.7,10.129c.781.74.749,1.594-.065,2.076a1.067,1.067,0,0,1-1.274-.027,10.962,10.962,0,0,1-.894-.782q-5.12-4.857-10.235-9.719C484.72,1994.95,484.55,1994.8,484.191,1994.479Z" transform="translate(-46.161 -48.622)" fill="#fff"/>
  </g>
</svg>
