<svg xmlns="http://www.w3.org/2000/svg" width="113.923" height="113.924" viewBox="0 0 113.923 113.924"><g transform="translate(-67.915 -1825.382)"><g transform="translate(87.962 1845.422)"><path d="M171.94,1889.168c.223.069.443.146.669.2a6.793,6.793,0,0,1,5.11,6.464c.04,1.647.044,1.636,1.59,2.255.823.329,1.648.665,2.436,1.068a.763.763,0,0,0,1.1-.175,7.162,7.162,0,0,1,4.174-2.508,6.431,6.431,0,0,1,5.639,1.508,53.954,53.954,0,0,1,4.028,4.017,6.542,6.542,0,0,1-.167,8.964c-1.071,1.078-1.251,1.894-.469,3.127a8.433,8.433,0,0,1,.845,2.133.879.879,0,0,0,1.056.758,6.9,6.9,0,0,1,4.283.958,6.57,6.57,0,0,1,3.276,5.666,39.6,39.6,0,0,1-.13,5.895,6.579,6.579,0,0,1-6.47,5.66c-1.7.045-1.692.049-2.314,1.611a23.1,23.1,0,0,1-1.072,2.433.754.754,0,0,0,.208,1.091,7.2,7.2,0,0,1,2.493,4.184,6.419,6.419,0,0,1-1.483,5.579,50.762,50.762,0,0,1-4.067,4.08,6.669,6.669,0,0,1-8.885-.071,14.678,14.678,0,0,1-1.221-1.36c-1.634.648-3.084,1.207-4.515,1.813-.165.07-.291.39-.315.607a17.618,17.618,0,0,1-.262,2.781,6.2,6.2,0,0,1-5.421,4.9,29.512,29.512,0,0,1-6.817.009,6.533,6.533,0,0,1-5.71-6.637c-.027-1.522-.032-1.509-1.428-2.074-.91-.369-1.819-.748-2.7-1.186a.651.651,0,0,0-.92.168,7.378,7.378,0,0,1-4.222,2.568,6.509,6.509,0,0,1-5.755-1.58c-1.314-1.193-2.574-2.454-3.78-3.758a6.582,6.582,0,0,1,.082-9.237c.98-.98,1.2-1.7.466-2.881a20.426,20.426,0,0,1-1.061-2.588.866.866,0,0,0-.6-.425c-.714-.076-1.449.007-2.153-.109a6.733,6.733,0,0,1-5.606-5.377,1.874,1.874,0,0,0-.134-.317v-6.631c.052-.153.116-.3.156-.46a6.618,6.618,0,0,1,4.882-5.073,11.573,11.573,0,0,1,2.71-.237.721.721,0,0,0,.815-.58,10.728,10.728,0,0,1,.984-2.464c.735-1.167.529-1.9-.456-2.88a6.587,6.587,0,0,1-.046-9.288c1.212-1.3,2.465-2.565,3.784-3.751a6.463,6.463,0,0,1,5.694-1.543,6.549,6.549,0,0,1,3.861,2.208,1.154,1.154,0,0,0,1.736.32,13.1,13.1,0,0,1,2.107-.914c1.539-.612,1.542-.606,1.582-2.259a6.781,6.781,0,0,1,4.628-6.314c.38-.127.767-.235,1.151-.353Zm-35.893,36.842c0,.745-.006,1.489,0,2.234a2.448,2.448,0,0,0,2.559,2.6c.985.014,1.97-.009,2.955.007a2.159,2.159,0,0,1,2.263,1.732,27.5,27.5,0,0,0,2.633,6.365,2.147,2.147,0,0,1-.409,2.93c-.671.688-1.367,1.352-2.033,2.043a2.428,2.428,0,0,0-.006,3.6q1.558,1.6,3.159,3.16a2.434,2.434,0,0,0,3.6.01c.677-.647,1.326-1.323,1.993-1.982a2.188,2.188,0,0,1,3.043-.441,27.51,27.51,0,0,0,6.229,2.585,2.209,2.209,0,0,1,1.817,2.415c.008.961-.011,1.922.007,2.883a2.433,2.433,0,0,0,2.512,2.5c1.489.017,2.979.015,4.468,0a2.449,2.449,0,0,0,2.562-2.594c.011-.961-.008-1.922.006-2.883a2.178,2.178,0,0,1,1.769-2.306,27.279,27.279,0,0,0,6.3-2.609,2.163,2.163,0,0,1,2.987.418c.686.673,1.348,1.37,2.044,2.033a2.424,2.424,0,0,0,3.545,0q1.631-1.578,3.211-3.21a2.422,2.422,0,0,0,.008-3.545c-.677-.715-1.393-1.392-2.081-2.1a2.142,2.142,0,0,1-.381-2.932,27.483,27.483,0,0,0,2.611-6.3,2.2,2.2,0,0,1,2.372-1.78c.985-.009,1.97.013,2.954-.008a2.426,2.426,0,0,0,2.457-2.478c.021-1.513.018-3.027,0-4.54a2.438,2.438,0,0,0-2.559-2.523c-.985-.012-1.97.01-2.955-.007a2.168,2.168,0,0,1-2.26-1.736,27.631,27.631,0,0,0-2.633-6.365,2.142,2.142,0,0,1,.414-2.927c.672-.687,1.369-1.349,2.032-2.045a2.432,2.432,0,0,0,0-3.6q-1.559-1.6-3.16-3.159a2.43,2.43,0,0,0-3.6,0c-.676.649-1.324,1.326-1.992,1.983a2.189,2.189,0,0,1-3.045.435,26.984,26.984,0,0,0-6.23-2.585,2.2,2.2,0,0,1-1.812-2.418c-.007-.961.011-1.922-.007-2.883a2.431,2.431,0,0,0-2.515-2.491c-1.489-.017-2.979-.014-4.468,0a2.431,2.431,0,0,0-2.558,2.523c-.015.985.007,1.97-.007,2.955a2.183,2.183,0,0,1-1.771,2.306,27.4,27.4,0,0,0-6.3,2.609,2.167,2.167,0,0,1-2.987-.422c-.668-.657-1.318-1.332-1.992-1.982a2.44,2.44,0,0,0-3.649,0q-1.57,1.538-3.108,3.109a2.439,2.439,0,0,0-.009,3.649c.668.691,1.364,1.354,2.034,2.043a2.149,2.149,0,0,1,.38,2.934,27.328,27.328,0,0,0-2.611,6.3,2.192,2.192,0,0,1-2.371,1.781c-.985.01-1.97-.012-2.955.008a2.428,2.428,0,0,0-2.459,2.474C136.034,1924.52,136.047,1925.265,136.047,1926.01Z" transform="translate(-131.722 -1889.168)"/><g transform="translate(20.857 20.856)"><path d="M214.165,1955.552a16.046,16.046,0,1,1-16.055,16.016A16.031,16.031,0,0,1,214.165,1955.552Zm11.709,16.027a11.72,11.72,0,1,0-11.7,11.74A11.7,11.7,0,0,0,225.874,1971.579Z" transform="translate(-198.11 -1955.552)"/></g></g><g transform="translate(67.915 1825.382)"><path d="M124.877,1939.306a56.962,56.962,0,1,1,56.962-56.962A57.026,57.026,0,0,1,124.877,1939.306Zm0-108.269a51.307,51.307,0,1,0,51.306,51.307A51.365,51.365,0,0,0,124.877,1831.037Z" transform="translate(-67.915 -1825.382)"/></g></g></svg>