<svg xmlns="http://www.w3.org/2000/svg" width="113.923" height="113.924" viewBox="0 0 113.923 113.924"><g transform="translate(-67.915 -1825.382)"><g transform="translate(67.915 1825.382)"><path d="M124.877,1939.306a56.962,56.962,0,1,1,56.962-56.962A57.026,57.026,0,0,1,124.877,1939.306Zm0-108.269a51.307,51.307,0,1,0,51.306,51.307A51.365,51.365,0,0,0,124.877,1831.037Z" transform="translate(-67.915 -1825.382)"/></g><g transform="translate(-1069.214 2079.138)"><path d="M1196.1-235.2c1.393.191,2.795.329,4.176.582a38.686,38.686,0,0,1,23.159,13.4c.176.207.348.419.527.624.028.032.086.037.19.08l1-3.918,4.31,1.065-2.634,10.565h-10.63v-4.383h4.6c-6.373-9.052-20.74-16.484-35.724-12.421a33.343,33.343,0,0,0-14.956,8.586,33.033,33.033,0,0,0-8.775,14.93,33.407,33.407,0,0,0-.165,17.3l-4.337,1.119c-.242-1.189-.531-2.332-.7-3.493a37.145,37.145,0,0,1,6.975-28.495,37.318,37.318,0,0,1,24.921-15.1c1.095-.176,2.2-.292,3.3-.437Z"/><path d="M1241.021-79.462c-.2,1.417-.341,2.844-.6,4.251a37.483,37.483,0,0,1-12.169,21.734,36.593,36.593,0,0,1-18.778,9.1c-11.177,1.844-21.25-.836-30.254-7.645a37.165,37.165,0,0,1-6.641-6.588l-1.039,4.04-4.314-1.059,2.637-10.57h10.607v4.4h-4.588c6.854,9.6,22.325,17.271,38.292,11.617a33.7,33.7,0,0,0,21.357-40.015l4.324-1.124c.245,1.268.509,2.492.712,3.726.184,1.119.3,2.249.449,3.375Z" transform="translate(-9.249 -115.317)"/><path d="M1299.839-124.693c0,4.333-.02,8.666.01,13a4.476,4.476,0,0,1-1.74,3.68,13.28,13.28,0,0,1-5.945,2.544,37.124,37.124,0,0,1-17.279-.372,11.219,11.219,0,0,1-4.738-2.357,4.356,4.356,0,0,1-1.525-3.4q.022-13.073,0-26.145a4.521,4.521,0,0,1,1.8-3.727,12.364,12.364,0,0,1,5.1-2.294,35.871,35.871,0,0,1,18.629.364,15.421,15.421,0,0,1,3.991,2.044,4.028,4.028,0,0,1,1.715,3.6C1299.821-133.408,1299.839-129.051,1299.839-124.693Zm-26.751-8.4c0,1.072.024,2.135-.011,3.2a.862.862,0,0,0,.553.935,20.147,20.147,0,0,0,2.4.967,31.54,31.54,0,0,0,14.261.493,29.952,29.952,0,0,0,4.429-1.4,1.066,1.066,0,0,0,.631-.707c.068-1.151.03-2.308.03-3.471A37.347,37.347,0,0,1,1273.088-133.1Zm0,8.916c0,1.134-.024,2.247.019,3.358a.938.938,0,0,0,.414.687,14,14,0,0,0,2.445,1.039,31.527,31.527,0,0,0,14.333.505,29.952,29.952,0,0,0,4.428-1.408,1.061,1.061,0,0,0,.621-.713c.067-1.148.029-2.3.029-3.458A37.348,37.348,0,0,1,1273.089-124.18Zm0,8.919c0,1.161-.023,2.32.021,3.476a.865.865,0,0,0,.45.592,15.452,15.452,0,0,0,2.452,1.024,31.517,31.517,0,0,0,14.261.5,29.122,29.122,0,0,0,4.43-1.4,1.127,1.127,0,0,0,.645-.771c.073-1.129.03-2.266.03-3.412A37.312,37.312,0,0,1,1273.09-115.26Zm22.148-22.914c-.856-.361-1.554-.722-2.292-.956a30.332,30.332,0,0,0-11.08-1.117,23.037,23.037,0,0,0-7.171,1.414c-.461.182-.89.445-1.391.7C1277.418-135.159,1290.915-135.155,1295.238-138.174Z" transform="translate(-90.507 -72.436)"/></g></g></svg>