<svg xmlns="http://www.w3.org/2000/svg" width="113.923" height="113.924" viewBox="0 0 113.923 113.924"><g transform="translate(-67.915 -1825.382)"><g transform="translate(67.915 1825.382)"><path d="M124.877,1939.306a56.962,56.962,0,1,1,56.962-56.962A57.026,57.026,0,0,1,124.877,1939.306Zm0-108.269a51.307,51.307,0,1,0,51.306,51.307A51.365,51.365,0,0,0,124.877,1831.037Z" transform="translate(-67.915 -1825.382)"/></g><g transform="translate(-1241.969 1402.94)"><path d="M1369.184,438.008c.788.1,1.579.18,2.363.309q16.765,2.759,23.089,18.533a28.826,28.826,0,0,1,1.844,10.469c.021,1.462,0,2.925,0,4.454.477.06.923.081,1.353.174,2.7.583,4.373,2.387,5.568,4.737a10.1,10.1,0,0,1,1.142,4.605c0,4.419.058,8.841-.062,13.258a6.437,6.437,0,0,1-5.772,6.235,2.4,2.4,0,0,0-1.951,1.223,20.111,20.111,0,0,1-16.457,9.777c-.263.012-.526.041-.849.066a9.255,9.255,0,0,1-4.782,6.618,9.973,9.973,0,0,1-6.857,1.169,10,10,0,1,1,11.683-11.85c4.38.415,10.488-2.652,12.951-6.609-.652,0-1.214,0-1.776,0-1.579-.012-2.307-.71-2.309-2.291q-.014-12.182.011-24.365a4.829,4.829,0,0,1,.349-1.618,1.558,1.558,0,0,1,1.615-1.062c.658.012,1.317,0,2.071,0,0-1.608,0-3.119,0-4.63a24.445,24.445,0,0,0-5.062-15.318,23.641,23.641,0,0,0-16.368-9.545c-10-1.2-18,2.438-23.86,10.593a23.125,23.125,0,0,0-4.26,12.848c-.076,1.986-.013,3.976-.013,6.049.606,0,1.16,0,1.713,0a1.993,1.993,0,0,1,2.243,2.041,9.622,9.622,0,0,1,.04,1.037q0,11.863,0,23.726c0,1.91-.621,2.535-2.532,2.531-2.423-.005-4.849.062-7.267-.051a7.805,7.805,0,0,1-7.337-7.409c-.1-4.736-.112-9.481.048-14.215a7.982,7.982,0,0,1,7.976-7.661c.312.009.624,0,1.038,0,0-.434,0-.772,0-1.11a50.135,50.135,0,0,1,.494-9.154,28.848,28.848,0,0,1,16.571-21.032,27.924,27.924,0,0,1,9.376-2.4c.26-.02.517-.086.776-.131Zm-26.428,59.109V475.875h-4.6a4.112,4.112,0,0,0-4.423,4.284c-.052,4.393-.039,8.786,0,13.18a3.813,3.813,0,0,0,3.632,3.762C1339.134,497.178,1340.918,497.117,1342.756,497.117Zm49.721-21.234v21.1c1.869,0,3.687.139,5.474-.041a2.712,2.712,0,0,0,2.549-2.96c.023-4.286.027-8.572-.011-12.858a6.314,6.314,0,0,0-1.494-3.959,3.034,3.034,0,0,0-2.3-1.269C1395.31,475.855,1393.927,475.882,1392.478,475.882ZM1375.593,510a5.954,5.954,0,1,0-11.9-.3,6.185,6.185,0,0,0,5.993,6.061A5.884,5.884,0,0,0,1375.593,510Z"/></g></g></svg>