<svg xmlns="http://www.w3.org/2000/svg" width="113.923" height="113.924" viewBox="0 0 113.923 113.924"><g transform="translate(-67.915 -1825.382)"><g transform="translate(67.915 1825.382)"><path d="M124.877,1939.306a56.962,56.962,0,1,1,56.962-56.962A57.026,57.026,0,0,1,124.877,1939.306Zm0-108.269a51.307,51.307,0,1,0,51.306,51.307A51.365,51.365,0,0,0,124.877,1831.037Z" transform="translate(-67.915 -1825.382)"/></g><g transform="translate(-748 1250.92)"><path d="M934.291,733.746c-.65-.175-1.313-.312-1.948-.531a9.7,9.7,0,0,1-6.7-9c-.094-3.278-.051-6.561-.024-9.841a1.281,1.281,0,0,0-.721-1.243,21.128,21.128,0,0,1-10.1-15.18,20.7,20.7,0,0,1,10.671-20.914c6.946-3.626,13.942-3.61,20.7.384a19.629,19.629,0,0,1,9.871,14.608c1.281,9.055-2.4,16-9.813,21.087a1.629,1.629,0,0,0-.853,1.561c.035,3.179.078,6.361-.022,9.538a9.745,9.745,0,0,1-8.308,9.389,1.639,1.639,0,0,0-.337.137Zm7.528-19.118a8.684,8.684,0,0,0-.006-1.061c-.213-1.593.455-2.5,1.912-3.25a16.928,16.928,0,0,0,8.682-18.5c-2.683-12.057-16.494-17.628-26.5-10.741a16.546,16.546,0,0,0-7.607,15.479c.434,6.415,3.778,11.1,9.537,13.995a2.131,2.131,0,0,1,1.354,2.139c-.022.644,0,1.29,0,1.943Zm-12.265,9.952a6.138,6.138,0,0,0,6.225,5.335c2.966-.192,5.794-2.974,5.6-5.335Zm12.215-3.667v-2.6H929.24v2.6Z" transform="translate(-62.282 -65.962)" stroke="#000" stroke-width="1"/><path d="M1100.655,640.459a4.59,4.59,0,0,1-.618,1.155q-3.515,3.544-7.094,7.025a1.729,1.729,0,0,1-2.57-.014,1.707,1.707,0,0,1,.094-2.5q3.523-3.537,7.1-7.021a1.641,1.641,0,0,1,1.957-.325A1.981,1.981,0,0,1,1100.655,640.459Z" transform="translate(-199.716 -37.904)" stroke="#000" stroke-width="1"/><path d="M894.2,647.175a1.9,1.9,0,0,1-.969,1.834,1.579,1.579,0,0,1-1.781-.087,3.382,3.382,0,0,1-.467-.382c-2.283-2.248-4.572-4.49-6.841-6.753a1.781,1.781,0,0,1,.607-3.052,1.552,1.552,0,0,1,1.683.348q3.655,3.569,7.273,7.175A3.092,3.092,0,0,1,894.2,647.175Z" transform="translate(-37.922 -37.934)" stroke="#000" stroke-width="1"/><path d="M841.744,760.183c-1.563,0-3.127.016-4.689-.006a1.782,1.782,0,0,1-1.846-1.368,1.7,1.7,0,0,1,.884-1.975,2.862,2.862,0,0,1,1.163-.25c3.025-.02,6.051-.014,9.076-.009a1.892,1.892,0,0,1,1.925,1.065,1.712,1.712,0,0,1-.221,1.85,1.965,1.965,0,0,1-1.678.693Q844.051,760.18,841.744,760.183Z" transform="translate(0 -130.411)" stroke="#000" stroke-width="1"/><path d="M1132.907,760.182c-1.588,0-3.177.021-4.765-.008a1.764,1.764,0,0,1-1.781-1.354,1.71,1.71,0,0,1,.878-1.981,2.838,2.838,0,0,1,1.162-.253c3.025-.02,6.051-.014,9.076-.01a1.9,1.9,0,0,1,1.93,1.058,1.713,1.713,0,0,1-.212,1.85,1.956,1.956,0,0,1-1.675.7q-2.307,0-4.614,0Z" transform="translate(-228.289 -130.413)" stroke="#000" stroke-width="1"/><path d="M1006.633,596.931c0,1.538.008,3.077,0,4.615a1.854,1.854,0,0,1-1.085,1.839,1.5,1.5,0,0,1-1.82-.274,2.62,2.62,0,0,1-.679-1.513c-.062-3.126-.046-6.254-.023-9.38a1.81,1.81,0,1,1,3.6.024C1006.652,593.8,1006.633,595.368,1006.633,596.931Z" transform="translate(-131.603)" stroke="#000" stroke-width="1"/></g></g></svg>